<?xml version="1.0" encoding="UTF-8"?>
<svg version="1.1" xmlns="http://www.w3.org/2000/svg" width="1024" height="1024">
<path d="M0 0 C337.92 0 675.84 0 1024 0 C1024 337.92 1024 675.84 1024 1024 C686.08 1024 348.16 1024 0 1024 C0 686.08 0 348.16 0 0 Z " fill="#FAFAFB" transform="translate(0,0)"/>
<path d="M0 0 C2.80840126 2.15430643 3.871913 3.41374807 4.63427734 6.90307617 C4.7008252 8.02174072 4.76737305 9.14040527 4.8359375 10.29296875 C4.9272998 11.55093262 5.01866211 12.80889648 5.11279297 14.10498047 C5.17584625 15.10340973 5.17584625 15.10340973 5.24017334 16.12200928 C6.22588422 31.22270733 8.9584713 45.40529538 13 60 C13.40776352 61.56340811 13.81412245 63.12718358 14.21875 64.69140625 C22.07963801 94.15727189 38.65711042 120.46713605 60 142 C60.84691406 142.85980469 61.69382812 143.71960938 62.56640625 144.60546875 C74.83334179 156.3854725 89.62736111 164.94423855 105 172 C106.11246094 172.53109375 107.22492188 173.0621875 108.37109375 173.609375 C131.49020717 184.17500045 157.7049467 188.49502762 183 189 C183.83885742 189.02046387 184.67771484 189.04092773 185.54199219 189.06201172 C206.01838089 189.49991257 225.7174637 187.53830297 245.875 184.125 C246.60690552 184.00211609 247.33881104 183.87923218 248.09289551 183.75262451 C257.7994051 182.10779985 267.31898939 180.04723903 276.84301758 177.56030273 C280.81822885 176.52769268 284.80233076 175.53010302 288.78515625 174.52734375 C290.48763213 174.09831493 292.19010608 173.66927841 293.89257812 173.24023438 C294.74408447 173.02584717 295.59559082 172.81145996 296.47290039 172.59057617 C298.20140841 172.15466037 299.92959865 171.71748259 301.6574707 171.27905273 C312.38943312 168.55731767 323.1065818 165.9965807 334 164 C334.95986816 163.81477783 335.91973633 163.62955566 336.90869141 163.4387207 C340.63876986 162.90934533 344.32953904 162.78217391 348.08984375 162.7265625 C348.86291367 162.71403442 349.63598358 162.70150635 350.43247986 162.68859863 C367.81792318 162.46159516 384.26636237 162.66602478 401 168 C401.80663086 168.25652344 402.61326172 168.51304687 403.44433594 168.77734375 C417.35026778 173.34262313 417.35026778 173.34262313 420 177 C420.65652643 181.43155342 420.48781838 183.31131523 417.875 187 C415 189 415 189 412.3125 189.0625 C409.65918007 188.21143512 407.18863162 187.26104758 404.625 186.1875 C400.0793325 184.29462326 395.51852407 182.99124243 390.75 181.8125 C390.07662598 181.64580811 389.40325195 181.47911621 388.70947266 181.30737305 C364.96657222 175.59322878 338.4183859 178.08726737 315 184 C313.97535645 184.25120605 312.95071289 184.50241211 311.89501953 184.76123047 C302.82179482 186.99641489 293.82530127 189.43990962 284.875 192.125 C276.559353 194.55292613 268.04479946 195.99346465 259.52954102 197.53027344 C257.00647315 197.99879796 254.4940718 198.50674562 251.98046875 199.0234375 C244.25864586 200.57987922 236.4599915 201.60264423 228.65478516 202.64306641 C227.00761711 202.86452674 225.36125437 203.09218587 223.71630859 203.32958984 C201.71099324 206.48467153 177.95548715 206.51991778 156 203 C154.98341309 202.84724609 154.98341309 202.84724609 153.94628906 202.69140625 C114.51310514 196.73506518 78.53128824 181.19756668 49.5 153.43261719 C48.50518792 152.48249393 47.5052117 151.5377466 46.5 150.59863281 C33.01634779 137.98404412 22.72154555 123.2230568 14 107 C13.6498584 106.35047363 13.2997168 105.70094727 12.93896484 105.03173828 C2.99809944 86.20066805 -7 61.57893907 -7 40 C-29.80015778 47.76923185 -50.94666642 62.06694127 -66 81 C-66.39268066 81.49145508 -66.78536133 81.98291016 -67.18994141 82.48925781 C-81.07094261 100.06107055 -91.15751544 119.78375532 -97.04296875 141.390625 C-98.02251444 144.06138632 -98.71665575 145.33482944 -101 147 C-104.89504791 147.49573337 -107.09493717 147.58016848 -110.4375 145.4375 C-112.61342813 142.04305212 -112.28926707 140.02596367 -112 136 C-111.2071977 132.61290183 -110.13139471 129.35019286 -109 126.0625 C-108.68603271 125.13880615 -108.37206543 124.2151123 -108.04858398 123.26342773 C-105.07187117 114.76639917 -101.32708744 106.87939233 -97 99 C-96.67386719 98.39075684 -96.34773438 97.78151367 -96.01171875 97.15380859 C-89.22558494 84.49063957 -80.88422811 73.40695171 -71 63 C-70.54753906 62.52030762 -70.09507812 62.04061523 -69.62890625 61.54638672 C-56.13816104 47.32900584 -40.5204189 36.88724361 -22.875 28.5 C-22.16448486 28.16154053 -21.45396973 27.82308105 -20.72192383 27.47436523 C-17.17793866 25.83773467 -13.87642237 24.5430008 -10 24 C-10.0314209 23.12263184 -10.0314209 23.12263184 -10.06347656 22.22753906 C-10.14680115 19.56853535 -10.19870897 16.90980645 -10.25 14.25 C-10.28351563 13.32960938 -10.31703125 12.40921875 -10.3515625 11.4609375 C-10.45037546 4.6428436 -10.45037546 4.6428436 -8.171875 1.390625 C-5.19755548 -0.51379541 -3.46624892 -0.57770815 0 0 Z " fill="#315E6D" transform="translate(369,337)"/>
<path d="M0 0 C0.66291046 0.00182281 1.32582092 0.00364563 2.00881958 0.00552368 C33.44393382 0.15098861 60.59469803 10.75300151 83.4375 32.3125 C84.56478516 33.32570313 84.56478516 33.32570313 85.71484375 34.359375 C103.27608887 50.77867624 115.13190346 76.92862406 116.66064453 100.79638672 C116.77763212 104.63773231 116.81769309 108.46937587 116.8125 112.3125 C116.81195618 112.99369904 116.81141235 113.67489807 116.81085205 114.3767395 C116.73272738 135.72133632 111.8658706 156.05308061 100.4375 174.3125 C99.7878125 175.35277344 99.138125 176.39304687 98.46875 177.46484375 C93.47877383 185.07234946 87.5495351 191.63626444 81.1875 198.125 C80.41889648 198.92043213 79.65029297 199.71586426 78.85839844 200.53540039 C73.31689332 206.04021078 73.31689332 206.04021078 69.03125 207.3671875 C66.15405397 207.30652373 64.73967758 207.03913318 62.4375 205.3125 C60.11212262 202.05697166 59.86706264 199.22607433 60.4375 195.3125 C62.42586345 192.78037048 64.85317082 190.81345718 67.3125 188.75 C87.09203686 171.16560299 99.96944965 145.94035205 101.79296875 119.265625 C102.34192626 93.22935449 94.07714273 67.75431548 76.94921875 47.90625 C69.40845976 40.11921428 61.0827066 33.31735284 51.4375 28.3125 C50.365 27.73886719 49.2925 27.16523438 48.1875 26.57421875 C23.80021038 14.02920599 -4.35122175 12.49050626 -30.45458984 20.62890625 C-31.1502002 20.85449219 -31.84581055 21.08007812 -32.5625 21.3125 C-33.68269531 21.6734375 -34.80289063 22.034375 -35.95703125 22.40625 C-62.64220385 32.40872433 -80.41378305 53.36975318 -92.5625 78.3125 C-93.10012117 79.60336924 -93.63281496 80.89630352 -94.16015625 82.19140625 C-95.5625 85.3125 -95.5625 85.3125 -97.5625 86.3125 C-100.49782227 86.59656345 -102.71259878 86.80715741 -105.5625 86.3125 C-108.125 84.1875 -108.125 84.1875 -109.5625 81.3125 C-109.22351388 75.78123866 -106.92239908 71.16916385 -104.5625 66.25 C-104.15950684 65.40945068 -103.75651367 64.56890137 -103.34130859 63.70288086 C-90.28238711 37.13043911 -67.18656498 16.89088783 -39.5625 6.3125 C-34.63962359 4.66664646 -29.62980572 3.43208273 -24.5625 2.3125 C-23.84924561 2.13517334 -23.13599121 1.95784668 -22.40112305 1.77514648 C-14.94606941 0.05510279 -7.62664808 -0.03311969 0 0 Z " fill="#315D6C" transform="translate(627.5625,276.6875)"/>
<path d="M0 0 C11.9609068 11.6433606 18.16681826 26.35110306 19.5625 42.8125 C19.64628906 43.72644531 19.73007812 44.64039063 19.81640625 45.58203125 C20.53284444 60.99700785 14.47786382 76.83414911 4.25 88.1875 C-0.08372085 92.80578802 -4.73895486 96.95696529 -10.4375 99.8125 C-11.0975 99.8125 -11.7575 99.8125 -12.4375 99.8125 C-12.4375 100.4725 -12.4375 101.1325 -12.4375 101.8125 C-11.66035645 101.80202637 -10.88321289 101.79155273 -10.08251953 101.78076172 C-6.575879 101.73929718 -3.06928994 101.71320422 0.4375 101.6875 C1.66082031 101.67074219 2.88414062 101.65398437 4.14453125 101.63671875 C5.31113281 101.63027344 6.47773437 101.62382813 7.6796875 101.6171875 C8.75847168 101.60671387 9.83725586 101.59624023 10.94873047 101.58544922 C13.5625 101.8125 13.5625 101.8125 15.5625 103.8125 C15.8125 106.8125 15.8125 106.8125 15.5625 109.8125 C11.76091566 113.61408434 5.12660023 112.18232945 0 112.1875 C-1.25103516 112.21199219 -2.50207031 112.23648438 -3.79101562 112.26171875 C-14.18698332 112.29453085 -14.18698332 112.29453085 -18.93359375 109.79296875 C-24.93321517 106.65618516 -31.3423499 107.50511396 -37.9375 107.75 C-46.43622789 108.03963111 -53.54780217 108.17902184 -61.4375 104.8125 C-62.74748004 104.36751146 -64.05969974 103.92900785 -65.375 103.5 C-79.82822064 97.98988994 -90.94401382 87.19882252 -97.4140625 73.23828125 C-104.52367319 56.38687575 -105.03093159 40.11212403 -99.4375 22.8125 C-92.88231505 6.98696475 -80.97278095 -4.28122814 -65.4140625 -11.00390625 C-43.48511842 -19.72368323 -18.32630908 -14.64647366 0 0 Z M-79.87890625 11.87109375 C-90.47194014 25.06592544 -92.9958352 40.31812128 -91.4375 56.8125 C-90.34509543 61.51522818 -88.68320121 65.54908756 -86.4375 69.8125 C-85.67566406 71.25882813 -85.67566406 71.25882813 -84.8984375 72.734375 C-77.78162038 84.94426977 -66.77316827 93.4991013 -53.0625 97.1875 C-46.94199569 98.31883167 -40.6324853 97.97111982 -34.4375 97.8125 C-35.71155873 95.10216915 -37.09806239 92.80079259 -38.96875 90.46484375 C-39.44957031 89.85962891 -39.93039062 89.25441406 -40.42578125 88.63085938 C-40.92464844 88.01017578 -41.42351563 87.38949219 -41.9375 86.75 C-42.92805328 85.50988872 -43.91767165 84.26902996 -44.90625 83.02734375 C-45.34388672 82.48198975 -45.78152344 81.93663574 -46.23242188 81.37475586 C-49.40099915 77.26703179 -49.72350671 74.9606208 -49.4375 69.8125 C-48.4375 68.8125 -48.4375 68.8125 -46.0703125 68.5546875 C-43.4375 68.8125 -43.4375 68.8125 -41.8046875 70.0703125 C-41.31226563 70.68648437 -40.81984375 71.30265625 -40.3125 71.9375 C-39.72855469 72.65550781 -39.14460937 73.37351562 -38.54296875 74.11328125 C-37.84816406 75.00402344 -37.15335938 75.89476562 -36.4375 76.8125 C-35.49687892 77.99411504 -34.55541441 79.17505898 -33.61328125 80.35546875 C-26.11970339 89.78919492 -26.11970339 89.78919492 -23.4375 93.8125 C-14.85529983 92.71261514 -7.3461218 85.57972719 -2 79.08984375 C7.29016398 65.54942974 10.87349676 50.45337386 7.9140625 34.265625 C4.16593822 20.8748904 -3.47840386 10.42113964 -15.2890625 3.02734375 C-37.01601075 -8.63870894 -62.59431848 -6.65698955 -79.87890625 11.87109375 Z " fill="#325D6D" transform="translate(764.4375,634.1875)"/>
<path d="M0 0 C1.29678263 -0.01173486 1.29678263 -0.01173486 2.6197629 -0.02370679 C4.04518192 -0.01366855 4.04518192 -0.01366855 5.49939728 -0.00342751 C6.50848129 -0.00810748 7.5175653 -0.01278745 8.55722761 -0.01760924 C11.95446451 -0.02962033 15.35130256 -0.02007802 18.74854279 -0.01066017 C21.17758674 -0.01472315 23.60662884 -0.02006348 26.03566742 -0.02659035 C31.95791709 -0.03887676 37.88006234 -0.03704123 43.80230916 -0.02835242 C48.61438822 -0.021584 53.42643531 -0.0206555 58.23851776 -0.02392387 C58.92275935 -0.02438357 59.60700094 -0.02484327 60.31197712 -0.0253169 C61.70189433 -0.02627605 63.09181154 -0.02724869 64.48172873 -0.02823468 C77.52249661 -0.03679433 90.56320127 -0.02694543 103.60395879 -0.01083358 C114.79948329 0.00257014 125.99491449 0.00024221 137.19043732 -0.01358986 C150.18375768 -0.02963554 163.17702261 -0.0359703 176.17035151 -0.02675307 C177.55522568 -0.0257974 178.94009987 -0.02485428 180.32497406 -0.02392387 C181.0064022 -0.02346105 181.68783033 -0.02299822 182.38990781 -0.02252137 C187.19757157 -0.01992843 192.00520025 -0.02430899 196.81285858 -0.03136253 C203.28067148 -0.04064295 209.74834931 -0.03405884 216.21614647 -0.01667976 C218.59502048 -0.0127007 220.97390928 -0.01387305 223.35277748 -0.02046776 C226.59008657 -0.02861725 229.82682238 -0.01844146 233.06409454 -0.00342751 C234.01437389 -0.01011967 234.96465323 -0.01681184 235.94372892 -0.02370679 C236.80825068 -0.01588355 237.67277244 -0.00806031 238.56349182 0 C239.31105381 0.00048706 240.05861581 0.00097411 240.8288312 0.00147593 C243.36703969 0.49022586 244.24977175 1.32088267 245.78174591 3.37752342 C246.1572606 6.81974144 246.21069027 9.35146169 244.86566162 12.56885433 C241.39906377 15.5775789 237.49879118 14.92355283 233.06409454 14.87872887 C231.55046853 14.88703046 231.55046853 14.88703046 230.00626421 14.89549977 C226.60891218 14.90916461 223.21228738 14.89410505 219.81494904 14.87923241 C217.3859043 14.88301345 214.95686172 14.88851171 212.5278244 14.89560509 C206.6055384 14.90814943 200.68344659 14.90196823 194.76118267 14.8869295 C187.86802976 14.87009003 180.9749302 14.87327705 174.08176309 14.87702359 C161.78461141 14.88290546 149.48756204 14.86871782 137.19043732 14.84407616 C125.25127069 14.82015439 113.31224079 14.81307146 101.3730545 14.82356834 C88.37972842 14.83497152 75.38646562 14.83691507 62.39314032 14.82247025 C61.00826614 14.82094437 59.62339195 14.81942401 58.23851776 14.81790924 C57.55708962 14.81715143 56.87566149 14.81639361 56.17358401 14.81561283 C51.36592421 14.81086535 46.55829262 14.81272473 41.75063324 14.81697464 C35.28281032 14.82240895 28.81513516 14.81168361 22.34734535 14.79001999 C19.96847487 14.78443847 17.58958617 14.78399924 15.21071434 14.78897285 C11.97339517 14.79489418 8.73666338 14.78248095 5.49939728 14.76520348 C4.07397826 14.77421854 4.07397826 14.77421854 2.6197629 14.78341573 C1.32298026 14.77075582 1.32298026 14.77075582 0 14.75784016 C-0.74756199 14.75681103 -1.49512399 14.7557819 -2.26533937 14.75472158 C-4.76594035 14.27173987 -5.6590117 13.35222518 -7.21825409 11.37752342 C-7.61669159 9.44002342 -7.61669159 9.44002342 -7.59325409 7.37752342 C-7.60098846 6.69689842 -7.60872284 6.01627342 -7.61669159 5.31502342 C-6.74489641 1.07570571 -4.02233296 0.00262066 0 0 Z " fill="#2D5B6A" transform="translate(244.21825408935547,307.6224765777588)"/>
<path d="M0 0 C58.65 0 58.65 0 75.890625 16.76171875 C88.43390198 30.07152932 92.60093449 45.5606547 92.2421875 63.59765625 C91.16252162 78.76522048 84.14248817 92.74154395 73 103 C51.89776152 121.19659463 27.43627488 117 0 117 C0 78.39 0 39.78 0 0 Z M10 10 C10 42.01 10 74.02 10 107 C41.39839639 107.91355721 41.39839639 107.91355721 67.8125 94 C76.77170075 84.38922101 81.40209409 71.7111043 81.3125 58.6875 C81.30758545 57.84590332 81.3026709 57.00430664 81.29760742 56.13720703 C81.18202794 50.00971619 80.5713669 44.63004929 78 39 C77.6596875 38.24847656 77.319375 37.49695313 76.96875 36.72265625 C70.31027392 23.56316806 60.1155458 16.4845253 46.4453125 11.76171875 C33.61360894 7.76462259 27.91106175 10 10 10 Z " fill="#325E6D" transform="translate(280,623)"/>
<path d="M0 0 C6.91927943 -0.07657284 13.83844806 -0.12881775 20.75805664 -0.16479492 C23.10803308 -0.1798061 25.45798186 -0.20022135 27.80786133 -0.22631836 C31.20140442 -0.26304034 34.5945745 -0.27980365 37.98828125 -0.29296875 C39.02519608 -0.30845261 40.0621109 -0.32393646 41.13044739 -0.33988953 C53.3879205 -0.34266641 64.70490966 2.82368438 73.8125 11.3125 C81.54766074 19.51428296 82.45274525 28.63909812 82.27734375 39.4609375 C82.05173654 44.92714193 80.86094365 49.31273069 78 54 C77.61070312 54.64066406 77.22140625 55.28132812 76.8203125 55.94140625 C72.66131711 61.63849165 66.39721211 64.3855705 60 67 C59.34 67 58.68 67 58 67 C62.91842757 74.96366676 67.86982199 82.89899538 73.0625 90.6875 C73.46879639 91.29980469 73.87509277 91.91210938 74.29370117 92.54296875 C76.35097918 95.62092132 78.45685262 98.6446393 80.6640625 101.6171875 C81.0880835 102.19766846 81.51210449 102.77814941 81.94897461 103.3762207 C83.11238403 104.96022797 84.29577641 106.52950302 85.48046875 108.09765625 C87.32030257 111.61178614 87.11449774 113.25420027 86 117 C85 118 85 118 81.9375 118.75 C79.03343437 118.6850717 78.1725941 118.17580349 76.109375 116.07421875 C73.95358061 113.11657401 71.96774535 110.08602686 70 107 C69.25742902 105.8869646 68.51126617 104.77631803 67.76171875 103.66796875 C66.11855952 101.23441619 64.49118589 98.79139283 62.875 96.33984375 C60.68736592 93.02617531 58.47290853 89.73151255 56.25 86.44140625 C55.60885254 85.48927246 54.96770508 84.53713867 54.30712891 83.55615234 C53.03153828 81.66226936 51.7526296 79.77061646 50.47021484 77.88134766 C49.88965332 77.01687012 49.3090918 76.15239258 48.7109375 75.26171875 C48.18806152 74.48787842 47.66518555 73.71403809 47.12646484 72.91674805 C46 71 46 71 46 69 C43.03 69 40.06 69 37 69 C34.82233925 64.64467851 34.96960445 63.53374042 36 59 C37.11117187 58.97421875 38.22234375 58.9484375 39.3671875 58.921875 C49.30380165 58.58663161 57.84062731 58.06163382 65.9375 51.6875 C71.48774377 44.45536418 71.78603524 37.9453024 71 29 C70.02730008 23.60195362 67.75054587 19.69035967 63.31103516 16.40942383 C52.77321359 9.98275534 40.58238587 10.34896103 28.6875 10.25 C26.96416367 10.22177252 25.24085445 10.19183592 23.51757812 10.16015625 C19.34510202 10.08710545 15.1729447 10.03704458 11 10 C11.00184359 10.54445204 11.00368717 11.08890408 11.00558662 11.64985466 C11.04971901 24.88603049 11.08270623 38.12219346 11.10362434 51.35842705 C11.11407904 57.75932423 11.12826892 64.16016846 11.15087891 70.56103516 C11.17254725 76.73367969 11.18455591 82.90627317 11.18975449 89.07895279 C11.19346107 91.4385674 11.20069867 93.79817909 11.21146011 96.15777206 C11.22589516 99.45273718 11.2279813 102.74748903 11.22705078 106.04248047 C11.23783661 107.51846207 11.23783661 107.51846207 11.24884033 109.02426147 C11.246091 109.91891113 11.24334167 110.81356079 11.24050903 111.73532104 C11.24235262 112.51515791 11.24419621 113.29499477 11.24609566 114.09846306 C11 116 11 116 9 118 C6.0625 118.375 6.0625 118.375 3 118 C0.23098929 115.14135336 -0.37372946 113.11544959 -0.36076355 109.19110107 C-0.36488754 108.22638885 -0.36901154 107.26167664 -0.3732605 106.26773071 C-0.36247467 105.21612762 -0.35168884 104.16452454 -0.34057617 103.08105469 C-0.34101425 101.96856354 -0.34145233 100.85607239 -0.34190369 99.70986938 C-0.33981261 96.0303598 -0.31646574 92.35130506 -0.29296875 88.671875 C-0.28737395 86.12168629 -0.28310331 83.57149436 -0.28010559 81.02130127 C-0.26981903 74.9935456 -0.24617156 68.96598536 -0.21605712 62.938308 C-0.18251296 56.07500738 -0.16602709 49.2116989 -0.15097082 42.3483367 C-0.11962186 28.23213401 -0.06686149 14.11607595 0 0 Z " fill="#325D6D" transform="translate(545,623)"/>
<path d="M0 0 C3.0625 0.25 3.0625 0.25 6.0625 2.25 C6.34718486 4.84999648 6.437795 7.21313051 6.3996582 9.81396484 C6.4002121 10.59477417 6.40076599 11.3755835 6.40133667 12.18005371 C6.40107629 13.8802962 6.39417272 15.58054741 6.38149452 17.28074265 C6.36314328 19.98124098 6.36577865 22.68096203 6.3745575 25.38150024 C6.39637575 33.06125686 6.38569052 40.74072207 6.34741211 48.42041016 C6.32548168 53.11734381 6.332989 57.81351822 6.3578701 62.51042557 C6.36144073 64.29239838 6.35392555 66.07443237 6.33461952 67.85630417 C6.19220884 81.27560496 8.06681608 90.68273182 17.0625 101.25 C19.20200353 102.79816344 19.20200353 102.79816344 21.5 103.9375 C22.24121094 104.33324219 22.98242188 104.72898437 23.74609375 105.13671875 C32.32497099 109.25978791 41.25688226 109.55757473 50.5 107.0625 C59.41133901 103.92161822 64.45419004 98.47225326 68.60974121 90.1521759 C70.36580719 85.99252165 70.48354837 82.24433891 70.44726562 77.77612305 C70.4526384 76.95901352 70.45801117 76.14190399 70.46354675 75.30003357 C70.47328028 73.53823387 70.47628237 71.77638648 70.47319031 70.01456261 C70.46869595 67.2282113 70.48275472 64.44248949 70.50158691 61.65620422 C70.54451158 54.74367373 70.55565148 47.83115857 70.56781006 40.91851807 C70.57931527 35.06236601 70.60278828 29.20650417 70.64250183 23.3504734 C70.65611449 20.60158398 70.65189548 17.85308189 70.64709473 15.10417175 C70.65642909 13.42841081 70.66659632 11.75265422 70.67773438 10.0769043 C70.67158615 9.30963013 70.66543793 8.54235596 70.65910339 7.75183105 C70.68395996 5.63237 70.68395996 5.63237 71.0625 2.25 C74.0625 0.25 74.0625 0.25 77.6875 0.5625 C81.0625 1.25 81.0625 1.25 82.0625 2.25 C82.1734635 4.65084548 82.21988427 7.02319423 82.22363281 9.42504883 C82.23108017 10.55215271 82.23108017 10.55215271 82.23867798 11.70202637 C82.25335319 14.20370385 82.26011502 16.70531767 82.265625 19.20703125 C82.27137778 20.94805401 82.2771355 22.68907676 82.28289795 24.43009949 C82.29342702 28.09296972 82.2992553 31.75581792 82.30273438 35.41870117 C82.30818373 40.08435487 82.33212642 44.74971147 82.36070633 49.41527271 C82.37946177 53.01953434 82.38454541 56.62372679 82.38607025 60.22803307 C82.38907488 61.94581389 82.39702831 63.66359415 82.41025543 65.38132668 C82.51949006 80.67533372 81.3627088 95.90505057 70.25 107.5625 C60.36081764 116.74795778 50.4641353 119.98139613 37.06640625 119.53125 C25.01920635 118.84398402 14.07831935 114.38220471 5.7265625 105.49609375 C-1.36033381 95.93044732 -5.26433848 85.00204489 -5.19628906 73.12158203 C-5.1997937 72.35309433 -5.20329834 71.58460663 -5.20690918 70.79283142 C-5.21563294 68.28106359 -5.20991432 65.76958262 -5.203125 63.2578125 C-5.20447351 61.50283759 -5.2064156 59.74786304 -5.20892334 57.9928894 C-5.21186118 54.32985854 -5.20761711 50.66692567 -5.19824219 47.00390625 C-5.18679768 42.30276848 -5.19344699 37.60185784 -5.20538712 32.90072823 C-5.21259886 29.28400953 -5.21032184 25.66734514 -5.20513153 22.05062485 C-5.20379575 20.3162216 -5.20544027 18.58181345 -5.21009064 16.84741592 C-5.21515014 14.43216011 -5.20745634 12.01727858 -5.19628906 9.60205078 C-5.20033752 8.88310135 -5.20438599 8.16415192 -5.20855713 7.42341614 C-5.14849621 0.43816989 -5.14849621 0.43816989 0 0 Z " fill="#355F6E" transform="translate(416.9375,622.75)"/>
<path d="M0 0 C5.42204495 -0.36146966 5.42204495 -0.36146966 7.67297363 1.04632568 C9.68150737 4.00332855 9.43410427 6.99236469 9.41992188 10.44628906 C9.42839142 11.2029184 9.43686096 11.95954773 9.44558716 12.73910522 C9.46903407 15.2481153 9.46997634 17.75651344 9.46875 20.265625 C9.47585524 22.01902509 9.48355477 23.77242287 9.49182129 25.52581787 C9.50528964 29.21128779 9.50682804 32.89654357 9.50097656 36.58203125 C9.49512745 41.26555678 9.52545967 45.94802872 9.56609344 50.63135147 C9.59219455 54.26065434 9.59482687 57.88971262 9.59120178 61.51909637 C9.59287726 63.24278118 9.60236539 64.96647927 9.62034607 66.69007111 C9.75958316 81.70848883 8.0143222 95.72512395 -3 107 C-12.11838046 116.18041026 -22.26357799 119.14949494 -35 119.3125 C-41.16366165 119.28338928 -46.41759072 118.68782669 -52 116 C-52.73347656 115.67128906 -53.46695313 115.34257813 -54.22265625 115.00390625 C-64.9101372 109.70599546 -71.85569095 101.08772519 -76 90 C-78.64962378 81.08574294 -78.27181584 72.08248209 -78.23046875 62.875 C-78.22927514 61.11905959 -78.22882417 59.36311853 -78.2290802 57.60717773 C-78.22752328 53.9459223 -78.21928922 50.28476575 -78.20581055 46.62353516 C-78.18872103 41.92125836 -78.18499949 37.2190889 -78.18575573 32.51678467 C-78.18548463 28.90011564 -78.18001484 25.28347027 -78.17275429 21.66680908 C-78.16956573 19.93158141 -78.16759978 18.19635105 -78.16686058 16.46112061 C-78.16470468 14.04825198 -78.15597985 11.63550001 -78.14526367 9.22265625 C-78.14571686 8.50168259 -78.14617004 7.78070892 -78.14663696 7.03788757 C-78.11448465 2.11448465 -78.11448465 2.11448465 -77 1 C-71.1589404 0.62913907 -71.1589404 0.62913907 -69 1 C-66.57664838 4.63502743 -66.74040033 7.26654362 -66.79223633 11.4621582 C-66.79343475 12.22039383 -66.79463318 12.97862946 -66.79586792 13.75984192 C-66.79901948 15.40822386 -66.80633562 17.05660185 -66.8173008 18.70495033 C-66.83217538 21.32618095 -66.83054679 23.94690216 -66.82365417 26.56816101 C-66.80485142 34.02191915 -66.79802171 41.47529204 -66.84545898 48.92895508 C-66.87329105 53.49100224 -66.86651492 58.05194294 -66.83844566 62.61397362 C-66.83422376 64.3412656 -66.84246774 66.06864044 -66.8641758 67.79580116 C-67.01380124 80.22612231 -65.5232247 90.23622774 -57.22566223 100.11177063 C-51.21604356 106.02397631 -43.35306467 108.22784792 -35.125 108.5 C-26.14491506 108.2068525 -17.11428173 106.24196045 -10.4609375 99.83203125 C-4.29076445 92.09456825 -1.70511991 82.75034947 -1.69702148 72.98510742 C-1.68436249 71.83259491 -1.68436249 71.83259491 -1.67144775 70.65679932 C-1.645841 68.13968225 -1.63357281 65.62268197 -1.62109375 63.10546875 C-1.6049066 61.34905585 -1.58772533 59.59265185 -1.56959534 57.83625793 C-1.52405529 53.22905587 -1.48916654 48.62184175 -1.45739746 44.01452637 C-1.40537209 36.6227743 -1.3404567 29.23115239 -1.26918221 21.83956337 C-1.24632855 19.25700176 -1.23007644 16.6744569 -1.21446228 14.09184265 C-1.20106077 12.51719981 -1.18744642 10.94255877 -1.17358398 9.36791992 C-1.17097061 8.64739944 -1.16835724 7.92687897 -1.16566467 7.18452454 C-1.11364147 2.22728294 -1.11364147 2.22728294 0 0 Z " fill="#356070" transform="translate(904,623)"/>
<path d="M0 0 C3.50030181 0.92113205 4.3179823 2.64994291 6.375 5.625 C7.88103655 8.71622246 9.17811361 11.88907748 10.5 15.0625 C19.89239302 36.73043144 35.18845983 52.61545582 57.21875 61.46875 C58.78109375 62.04109375 58.78109375 62.04109375 60.375 62.625 C61.3546875 62.9859375 62.334375 63.346875 63.34375 63.71875 C69.28336122 65.49451005 75.19498308 65.75652011 81.35546875 65.765625 C82.86394766 65.78393075 84.37241169 65.80349895 85.88085938 65.82421875 C88.23130086 65.85329434 90.58076263 65.87500376 92.93139648 65.87548828 C95.21944689 65.87881912 97.50530026 65.91330144 99.79296875 65.953125 C100.49407272 65.9460553 101.1951767 65.9389856 101.91752625 65.93170166 C105.5956005 66.0234867 107.10825111 66.37173677 109.8137207 68.94042969 C111.86589054 72.46907075 112.04366327 74.61302036 111.375 78.625 C107.44423645 81.83258119 103.71514111 82.07949345 98.828125 82.05859375 C97.73392242 82.06645653 97.73392242 82.06645653 96.61761475 82.07447815 C95.07109847 82.08088853 93.52453338 82.07957404 91.97802734 82.07104492 C89.67320106 82.06267504 87.37097878 82.09107335 85.06640625 82.12304688 C70.89903433 82.19271889 57.32976808 79.87064182 44.5625 73.4375 C43.76900146 73.04731689 42.97550293 72.65713379 42.15795898 72.25512695 C21.12190679 61.5969461 5.99538572 43.92331059 -3.625 22.625 C-4.11226562 21.55507813 -4.59953125 20.48515625 -5.1015625 19.3828125 C-9.19427211 10.031314 -9.19427211 10.031314 -8.625 5.625 C-5.89510338 2.76813144 -3.88319842 0.92457105 0 0 Z " fill="#325D6D" transform="translate(521.625,420.375)"/>
<path d="M0 0 C1.11755676 -0.00788544 1.11755676 -0.00788544 2.25769043 -0.01593018 C4.72221807 -0.02914123 7.18610047 -0.02038763 9.65063477 -0.01025391 C11.36312484 -0.01227455 13.07561407 -0.0151859 14.7881012 -0.01895142 C18.37851142 -0.02337643 21.96869782 -0.01693888 25.55908203 -0.00292969 C30.16050028 0.0141495 34.76139311 0.00433034 39.36279202 -0.01364708 C42.89984592 -0.02449119 46.43677542 -0.02103549 49.97383308 -0.0132637 C51.67029953 -0.01126276 53.36677727 -0.01371728 55.06323051 -0.02070236 C57.43568675 -0.02832584 59.80729442 -0.01670023 62.1796875 0 C63.23105644 -0.00910904 63.23105644 -0.00910904 64.30366516 -0.0184021 C68.36896012 0.03458317 70.69324187 0.53716487 73.65454102 3.38818359 C73.39892778 5.73130489 73.06183329 8.06661762 72.65454102 10.38818359 C69.58859507 11.92115656 66.38342249 11.50949814 63.02172852 11.48583984 C61.89397507 11.48371742 61.89397507 11.48371742 60.74343872 11.48155212 C58.33876592 11.47594825 55.93418574 11.46339516 53.52954102 11.45068359 C51.90063611 11.44566909 50.27172974 11.4411061 48.64282227 11.43701172 C44.64669275 11.42597756 40.65063259 11.40871038 36.65454102 11.38818359 C36.66120285 12.68444168 36.66786469 13.98069977 36.67472839 15.3162384 C36.73546699 27.51496208 36.78047878 39.7136552 36.80997753 51.91249561 C36.8256528 58.18448487 36.84692516 64.45635233 36.88085938 70.72827148 C36.91338623 76.77773427 36.93138 82.82707969 36.93917274 88.87662315 C36.94472825 91.18797339 36.95557636 93.49931699 36.97173119 95.81061745 C36.99341649 99.04079847 36.99651164 102.27049067 36.99511719 105.50073242 C37.00590302 106.4624234 37.01668884 107.42411438 37.02780151 108.41494751 C37.02161552 109.73374153 37.02161552 109.73374153 37.01530457 111.07917786 C37.01806994 111.84334424 37.02083532 112.60751062 37.0236845 113.39483356 C36.55195178 115.94215855 35.68794016 116.82722845 33.65454102 118.38818359 C31.15454102 118.76318359 31.15454102 118.76318359 28.65454102 118.38818359 C26.62114187 116.82722845 25.75713025 115.94215855 25.28539753 113.39483356 C25.2895456 112.24858399 25.2895456 112.24858399 25.29377747 111.07917786 C25.28965347 110.19998184 25.28552948 109.32078583 25.28128052 108.41494751 C25.29206635 107.45325653 25.30285217 106.49156555 25.31396484 105.50073242 C25.31330772 103.9785183 25.31330772 103.9785183 25.31263733 102.42555237 C25.31473035 99.06524536 25.33808602 95.70543489 25.36157227 92.34521484 C25.36716638 90.01779961 25.37143735 87.69038084 25.37443542 85.36296082 C25.38589864 79.23245518 25.41537872 73.10216223 25.44854736 66.97174072 C25.47921632 60.71800616 25.49293398 54.46423728 25.50805664 48.21044922 C25.54024684 35.93626715 25.59146117 23.66224305 25.65454102 11.38818359 C24.12531006 11.40389404 24.12531006 11.40389404 22.56518555 11.41992188 C18.789505 11.45607087 15.0138398 11.47906536 11.23803711 11.49804688 C9.60259429 11.50811614 7.96716953 11.5217724 6.33178711 11.5390625 C3.98359732 11.56327064 1.63564514 11.57465717 -0.71264648 11.58349609 C-1.81272537 11.59897995 -1.81272537 11.59897995 -2.93502808 11.61477661 C-4.74008596 11.61517728 -6.54453728 11.51031114 -8.34545898 11.38818359 C-10.34545898 9.38818359 -10.34545898 9.38818359 -10.65795898 6.45068359 C-10.34545898 3.38818359 -10.34545898 3.38818359 -9.28501892 1.72103882 C-6.361378 -0.2880716 -3.42396262 -0.02957972 0 0 Z " fill="#376272" transform="translate(118.345458984375,622.61181640625)"/>
<path d="M0 0 C6.95594129 -0.0509432 13.91183399 -0.08583535 20.86791992 -0.10986328 C23.23154498 -0.11988618 25.59515775 -0.13350806 27.95874023 -0.15087891 C31.36705571 -0.17529069 34.77520643 -0.18652054 38.18359375 -0.1953125 C39.23083115 -0.20563507 40.27806854 -0.21595764 41.35704041 -0.22659302 C47.55580177 -0.22752908 52.999871 0.42431869 59 2 C55.375 5 55.375 5 52 5 C52 5.66 52 6.32 52 7 C40.12 7 28.24 7 16 7 C16 7.66 16 8.32 16 9 C14.35 9 12.7 9 11 9 C11.00184359 9.54960577 11.00368717 10.09921154 11.00558662 10.66547203 C11.04971865 24.02682602 11.08270606 37.38816727 11.10362434 50.74957848 C11.11407912 57.21100955 11.12826915 63.67238818 11.15087891 70.13378906 C11.17254697 76.36478824 11.18455585 82.59573685 11.18975449 88.82677078 C11.19346112 91.20871401 11.20069882 93.59065434 11.21146011 95.97257614 C11.22589478 99.29867369 11.22798131 102.62455997 11.22705078 105.95068359 C11.23424133 106.94402206 11.24143188 107.93736053 11.24884033 108.96080017 C11.246091 109.86386398 11.24334167 110.7669278 11.24050903 111.69735718 C11.24235262 112.48456839 11.24419621 113.27177959 11.24609566 114.08284569 C11 116 11 116 9 118 C6.0625 118.375 6.0625 118.375 3 118 C0.23098929 115.14135336 -0.37372946 113.11544959 -0.36076355 109.19110107 C-0.36488754 108.22638885 -0.36901154 107.26167664 -0.3732605 106.26773071 C-0.36247467 105.21612762 -0.35168884 104.16452454 -0.34057617 103.08105469 C-0.34101425 101.96856354 -0.34145233 100.85607239 -0.34190369 99.70986938 C-0.33981261 96.0303598 -0.31646574 92.35130506 -0.29296875 88.671875 C-0.28737395 86.12168629 -0.28310331 83.57149436 -0.28010559 81.02130127 C-0.26981903 74.9935456 -0.24617156 68.96598536 -0.21605712 62.938308 C-0.18251296 56.07500738 -0.16602709 49.2116989 -0.15097082 42.3483367 C-0.11962186 28.23213401 -0.06686149 14.11607595 0 0 Z " fill="#376475" transform="translate(545,623)"/>
<path d="M0 0 C2.4375 0.875 2.4375 0.875 4.4375 3.875 C4.89614761 5.53060601 5.30760575 7.19956894 5.6875 8.875 C9.91667421 24.8448668 21.40476699 38.59461476 35.45141602 47.02416992 C44.966995 52.51755358 54.67864515 56.66967377 65.35546875 59.296875 C67.4375 59.875 67.4375 59.875 68.4375 60.875 C68.625 63.8125 68.625 63.8125 68.4375 66.875 C67.7775 67.535 67.1175 68.195 66.4375 68.875 C53.94478218 68.18096012 42.2285711 63.90235543 31.5 57.625 C29.01491916 56.20495381 27.22486451 55.32097832 24.4375 54.875 C24.23125 55.535 24.025 56.195 23.8125 56.875 C20.88087956 63.27126277 16.79156858 68.63036923 10.4375 71.875 C7.06927508 72.51656665 5.96865527 72.23388869 3.125 70.3125 C0.67882979 66.77914303 0.76012856 65.14244007 1.4375 60.875 C3.60448896 56.14023102 6.16793419 51.64845112 9.19921875 47.4140625 C10.83327865 44.06346649 10.49332433 42.41293767 9.4375 38.875 C8.01980623 36.4054689 8.01980623 36.4054689 6.1875 34.125 C0.02302419 25.68674213 -7.16108574 13.79866925 -5.5625 2.875 C-3.8925532 0.15034996 -3.20820586 -0.15649785 0 0 Z " fill="#325D6C" transform="translate(571.5625,383.125)"/>
<path d="M0 0 C6.57692308 0.57692308 6.57692308 0.57692308 8 2 C8.10000925 3.4755121 8.13075227 4.95578259 8.13371277 6.43467712 C8.13797775 7.39237503 8.14224274 8.35007294 8.14663696 9.33679199 C8.14618378 10.39603882 8.14573059 11.45528564 8.14526367 12.54663086 C8.14862228 13.65547134 8.1519809 14.76431183 8.15544128 15.90675354 C8.1649841 19.59279483 8.16689604 23.27879086 8.16796875 26.96484375 C8.17117894 29.51453165 8.17454282 32.06421936 8.17805481 34.61390686 C8.18405438 39.96648663 8.18593652 45.31904937 8.18530273 50.67163086 C8.18470179 56.86495823 8.19525525 63.05819855 8.2110464 69.25150388 C8.22567782 75.20115019 8.22929135 81.15076978 8.22869301 87.10043526 C8.22987723 89.63588377 8.23432353 92.17133285 8.24202538 94.70676994 C8.25176938 98.24591267 8.24896941 101.78482861 8.24291992 105.32397461 C8.24853943 106.3811972 8.25415894 107.4384198 8.25994873 108.52767944 C8.25575424 109.48819717 8.25155975 110.4487149 8.24723816 111.43833923 C8.24778293 112.27587203 8.24832769 113.11340483 8.24888897 113.97631741 C8 116 8 116 6 118 C3.20063066 118.35889351 1.65948076 118.49546851 -0.63676739 116.77029514 C-2.39080283 114.49250308 -2.37480072 113.2201968 -2.3742218 110.36277771 C-2.38123611 109.41074463 -2.38825043 108.45871155 -2.39547729 107.47782898 C-2.38783356 106.43512344 -2.38018982 105.39241791 -2.37231445 104.31811523 C-2.37596512 103.21873627 -2.37961578 102.1193573 -2.38337708 100.98666382 C-2.3914994 97.34381787 -2.37785894 93.70141434 -2.36328125 90.05859375 C-2.36276288 87.53418478 -2.36327967 85.00977539 -2.36479187 82.48536682 C-2.36470207 77.19175709 -2.3545938 71.89830347 -2.33618164 66.60473633 C-2.31500303 60.48065137 -2.31150642 54.3567539 -2.3177436 48.23263973 C-2.32343345 42.34490765 -2.31769265 36.45723218 -2.30657005 30.56950569 C-2.30271046 28.06197438 -2.30157296 25.5544374 -2.3031559 23.04690361 C-2.30352511 19.54865501 -2.29094706 16.05069557 -2.2746582 12.55249023 C-2.27713562 11.50776047 -2.27961304 10.4630307 -2.28216553 9.38664246 C-2.27508072 8.4374292 -2.26799591 7.48821594 -2.26069641 6.51023865 C-2.25761711 5.26889742 -2.25761711 5.26889742 -2.25447559 4.0024786 C-2 2 -2 2 0 0 Z " fill="#2F5D6D" transform="translate(224,623)"/>
<path d="M0 0 C3.0625 0.25 3.0625 0.25 6.0625 2.25 C6.34910203 4.79352483 6.44107678 7.09286964 6.40307617 9.63720703 C6.40351425 10.39827759 6.40395233 11.15934814 6.40440369 11.94348145 C6.40230959 14.46518393 6.37895001 16.98622583 6.35546875 19.5078125 C6.34987499 21.25372962 6.34560385 22.99965144 6.34260559 24.74557495 C6.33113948 29.3455704 6.30165727 33.94528263 6.26849365 38.54516602 C6.23783071 43.23710295 6.22410835 47.92908555 6.20898438 52.62109375 C6.17678913 61.83085375 6.12557159 71.04040334 6.0625 80.25 C5.4025 79.26 4.7425 78.27 4.0625 77.25 C4.10375 78.36375 4.145 79.4775 4.1875 80.625 C4.0625 84.25 4.0625 84.25 2.0625 86.25 C0.7425 86.25 -0.5775 86.25 -1.9375 86.25 C-1.9375 85.59 -1.9375 84.93 -1.9375 84.25 C-2.5975 84.25 -3.2575 84.25 -3.9375 84.25 C-5.13055078 80.67084765 -5.0850928 77.41418013 -5.08276367 73.68920898 C-5.08612228 72.92145142 -5.0894809 72.15369385 -5.09294128 71.3626709 C-5.10244395 68.82379542 -5.10439381 66.2849859 -5.10546875 63.74609375 C-5.10868093 61.98397291 -5.11204497 60.22185233 -5.11555481 58.45973206 C-5.12154374 54.76684958 -5.12339486 51.07399051 -5.12280273 47.38110352 C-5.12270092 42.64060385 -5.13637362 37.90025334 -5.15357494 33.15978909 C-5.16467021 29.52162481 -5.16672274 25.88349693 -5.16619301 22.24531746 C-5.16737608 20.4969538 -5.17181605 18.74858929 -5.17952538 17.00024223 C-5.18927899 14.56051913 -5.18646616 12.12112443 -5.18041992 9.68139648 C-5.18603943 8.95459183 -5.19165894 8.22778717 -5.19744873 7.47895813 C-5.15291623 0.43854606 -5.15291623 0.43854606 0 0 Z " fill="#3B6777" transform="translate(416.9375,622.75)"/>
<path d="M0 0 C2.0625 0.4375 2.0625 0.4375 4 1 C3.67 1.33 3.34 1.66 3 2 C2.83333333 5 2.83333333 5 3 8 C4.97829072 9.97829072 8.82327027 9.25503932 11.53515625 9.31640625 C12.66503212 9.3475779 12.66503212 9.3475779 13.81773376 9.37937927 C16.2325599 9.44495425 18.64749798 9.50379621 21.0625 9.5625 C22.69597529 9.6056777 24.3294391 9.64929173 25.96289062 9.69335938 C29.97514464 9.80064362 33.98751164 9.90188821 38 10 C38 10.33 38 10.66 38 11 C26.78 11.33 15.56 11.66 4 12 C4 12.66 4 13.32 4 14 C2.35 14 0.7 14 -1 14 C-0.8246875 13.43667969 -0.649375 12.87335937 -0.46875 12.29296875 C0.05030534 9.75392304 -0.12829458 7.86797474 -0.5 5.3125 C-0.70629588 3.88015017 -0.88297041 2.44238972 -1 1 C-0.67 0.67 -0.34 0.34 0 0 Z " fill="#E7F2F7" transform="translate(106,624)"/>
<path d="M0 0 C0.66 0.99 1.32 1.98 2 3 C1.34 3.66 0.68 4.32 0 5 C-0.33 5.99 -0.66 6.98 -1 8 C-4.0625 9.6875 -4.0625 9.6875 -7 11 C-7 11.99 -7 12.98 -7 14 C-9.31 14.66 -11.62 15.32 -14 16 C-7.07 16.33 -0.14 16.66 7 17 C7 17.33 7 17.66 7 18 C-1.58 18 -10.16 18 -19 18 C-19 17.34 -19 16.68 -19 16 C-17.09375 14.7734375 -17.09375 14.7734375 -14.5 13.375 C-8.90738601 10.1451262 -2.96232111 5.92464222 0 0 Z " fill="#D4E4E8" transform="translate(771,718)"/>
<path d="M0 0 C0.886875 0.391875 1.77375 0.78375 2.6875 1.1875 C2.8125 4.0625 2.8125 4.0625 2.6875 7.1875 C0.6875 9.1875 0.6875 9.1875 -1.9375 9.3125 C-2.72125 9.27125 -3.505 9.23 -4.3125 9.1875 C-4.6425 8.5275 -4.9725 7.8675 -5.3125 7.1875 C-7.32919827 6.05399466 -7.32919827 6.05399466 -9.3125 5.1875 C-8.3125 2.1875 -8.3125 2.1875 -6.125 0.375 C-3.3125 -0.8125 -3.3125 -0.8125 0 0 Z " fill="#396676" transform="translate(637.3125,442.8125)"/>
<path d="M0 0 C0.66 1.32 1.32 2.64 2 4 C2.99 3.67 3.98 3.34 5 3 C5.99 3.66 6.98 4.32 8 5 C7 8 7 8 5 10 C5.99 10 6.98 10 8 10 C8 10.99 8 11.98 8 13 C8.66 13.33 9.32 13.66 10 14 C7.73828125 14.3125 7.73828125 14.3125 5 14 C2.98046875 11.8125 2.98046875 11.8125 1.1875 9 C0.58292969 8.071875 -0.02164063 7.14375 -0.64453125 6.1875 C-1.09183594 5.465625 -1.53914062 4.74375 -2 4 C-1.34 2.68 -0.68 1.36 0 0 Z " fill="#2D5A69" transform="translate(618,727)"/>
<path d="M0 0 C0 3 0 3 -1 5 C-0.34 5 0.32 5 1 5 C0.67 5.598125 0.34 6.19625 0 6.8125 C-1.20787988 9.05386471 -1.20787988 9.05386471 -1 12 C-1 12.99 -1 13.98 -1 15 C-3.31 16.32 -5.62 17.64 -8 19 C-8.66 18.34 -9.32 17.68 -10 17 C-9.01 17 -8.02 17 -7 17 C-6.67 16.01 -6.34 15.02 -6 14 C-5.67 13.67 -5.34 13.34 -5 13 C-5.66 12.01 -6.32 11.02 -7 10 C-6.34 9.67 -5.68 9.34 -5 9 C-4.814375 7.8553125 -4.814375 7.8553125 -4.625 6.6875 C-3.86156285 3.40472026 -2.50142651 2.1786618 0 0 Z " fill="#315A68" transform="translate(896,720)"/>
<path d="M0 0 C0.66 1.32 1.32 2.64 2 4 C-6.07744875 15.70615034 -6.07744875 15.70615034 -12 20 C-12.66 19.67 -13.32 19.34 -14 19 C-13.57589844 18.55011719 -13.15179687 18.10023438 -12.71484375 17.63671875 C-7.7359531 12.17635296 -3.81886789 6.31448064 0 0 Z " fill="#DFEFF2" transform="translate(728,449)"/>
<path d="M0 0 C0.78375 0.04125 1.5675 0.0825 2.375 0.125 C3.035 2.105 3.695 4.085 4.375 6.125 C3.055 5.795 1.735 5.465 0.375 5.125 C0.045 6.775 -0.285 8.425 -0.625 10.125 C-1.615 10.455 -2.605 10.785 -3.625 11.125 C-5.13162097 8.11175805 -4.80270373 5.44213623 -4.625 2.125 C-2.625 0.125 -2.625 0.125 0 0 Z " fill="#3E6572" transform="translate(718.625,701.875)"/>
<path d="M0 0 C0.33 0.66 0.66 1.32 1 2 C0.67 2.66 0.34 3.32 0 4 C1.88316159 5.10836423 1.88316159 5.10836423 4 6 C4.66 5.67 5.32 5.34 6 5 C5.67 5.639375 5.34 6.27875 5 6.9375 C3.92728775 8.76794567 3.92728775 8.76794567 4 10 C3.01 10.33 2.02 10.66 1 11 C0.67 10.34 0.34 9.68 0 9 C-2.52733235 8.34444881 -2.52733235 8.34444881 -5 8 C-4.45773019 4.20411134 -2.79872437 2.52788007 0 0 Z " fill="#386071" transform="translate(681,634)"/>
<path d="M0 0 C3 1 3 1 5.3125 3 C8.30756663 5.2288868 10.3285229 5.65846725 14 6 C14 6.66 14 7.32 14 8 C6.8808766 8.8089913 1.37883514 5.93279777 -5 3 C-2 1 -2 1 0 0 Z " fill="#406675" transform="translate(743,738)"/>
<path d="M0 0 C0.66 0.33 1.32 0.66 2 1 C1.67 1.66 1.34 2.32 1 3 C0.34 3 -0.32 3 -1 3 C-1.061875 3.556875 -1.12375 4.11375 -1.1875 4.6875 C-2.38225215 8.08794844 -4.23687367 9.72809613 -7 12 C-10.3125 12.8125 -10.3125 12.8125 -13 13 C-9.0580583 8.11950075 -4.88049925 3.9419417 0 0 Z " fill="#365967" transform="translate(314,385)"/>
<path d="M0 0 C0.33 0 0.66 0 1 0 C1.33 2.64 1.66 5.28 2 8 C1.0409375 8.3403125 1.0409375 8.3403125 0.0625 8.6875 C-2.27193661 9.85250896 -2.27193661 9.85250896 -2.75 12.625 C-2.8325 13.40875 -2.915 14.1925 -3 15 C-3.99 15 -4.98 15 -6 15 C-6 14.34 -6 13.68 -6 13 C-5.34 13 -4.68 13 -4 13 C-4.66 12.01 -5.32 11.02 -6 10 C-5.625 7.3125 -5.625 7.3125 -5 5 C-3.35 4.67 -1.7 4.34 0 4 C0 2.68 0 1.36 0 0 Z " fill="#3D6978" transform="translate(575,387)"/>
<path d="M0 0 C4.29 0.33 8.58 0.66 13 1 C11.68 1.33 10.36 1.66 9 2 C9.33 2.99 9.66 3.98 10 5 C10 5.99 10 6.98 10 8 C10.99 8.66 11.98 9.32 13 10 C10.03 10 7.06 10 4 10 C3.67 9.34 3.34 8.68 3 8 C3.66 8 4.32 8 5 8 C5.33 6.68 5.66 5.36 6 4 C6.66 4 7.32 4 8 4 C8 3.34 8 2.68 8 2 C5.36 1.67 2.72 1.34 0 1 C0 0.67 0 0.34 0 0 Z " fill="#2A5664" transform="translate(715,732)"/>
<path d="M0 0 C1.32 0.66 2.64 1.32 4 2 C3.40832031 2.44730469 2.81664062 2.89460937 2.20703125 3.35546875 C-2.14882567 6.68809011 -6.24356546 10.00121485 -10 14 C-10.8125 12.3125 -10.8125 12.3125 -11 10 C-7.78028896 6.19488696 -3.85748717 3.13981514 0 0 Z " fill="#E8F3F6" transform="translate(684,628)"/>
<path d="M0 0 C-4.625 2.125 -4.625 2.125 -8 1 C-8 1.66 -8 2.32 -8 3 C-13.02125926 3.77916092 -16.97703996 4.13016601 -22 3 C-22 2.34 -22 1.68 -22 1 C-18.89698871 0.63517625 -15.79249627 0.28499056 -12.6875 -0.0625 C-11.36588867 -0.2181543 -11.36588867 -0.2181543 -10.01757812 -0.37695312 C-9.17001953 -0.47041016 -8.32246094 -0.56386719 -7.44921875 -0.66015625 C-6.27879028 -0.79369507 -6.27879028 -0.79369507 -5.0847168 -0.92993164 C-3 -1 -3 -1 0 0 Z " fill="#D7E7EB" transform="translate(606,539)"/>
<path d="M0 0 C-1.51921478 4.25380138 -4.13109024 5.85060569 -8 8 C-10.65944914 8.85140638 -13.25791326 9.43267171 -16 10 C-13.82978968 7.72127916 -11.52395805 5.87261404 -9 4 C-8.34 3.34 -7.68 2.68 -7 2 C-6.34 2.33 -5.68 2.66 -5 3 C-4.67 2.34 -4.34 1.68 -4 1 C-2 0 -2 0 0 0 Z " fill="#E5F0F4" transform="translate(894,721)"/>
<path d="M0 0 C3.875 4.75 3.875 4.75 5 7 C3.88820837 10.33537489 2.52588702 11.63707344 0 14 C-0.66 13.67 -1.32 13.34 -2 13 C-2.125 10.625 -2.125 10.625 -2 8 C-1.34 7.34 -0.68 6.68 0 6 C0.16681109 2.91652174 0.16681109 2.91652174 0 0 Z " fill="#2E5F74" transform="translate(615,710)"/>
<path d="M0 0 C0 0.33 0 0.66 0 1 C-0.81984375 1.04898438 -1.6396875 1.09796875 -2.484375 1.1484375 C-3.56203125 1.22320313 -4.6396875 1.29796875 -5.75 1.375 C-7.35101562 1.47941406 -7.35101562 1.47941406 -8.984375 1.5859375 C-11.84914441 1.97928667 -13.5051682 2.63772568 -16 4 C-18.3260857 4.38063221 -20.66055264 4.71269945 -23 5 C-24.66934283 5.31966139 -26.3373217 5.64731066 -28 6 C-20.02082739 -0.57867118 -9.87349792 -0.42382265 0 0 Z " fill="#C4D9DF" transform="translate(727,630)"/>
<path d="M0 0 C1.1446875 0.3403125 1.1446875 0.3403125 2.3125 0.6875 C2.6425 1.6775 2.9725 2.6675 3.3125 3.6875 C2.9825 4.3475 2.6525 5.0075 2.3125 5.6875 C0.9925 5.3575 -0.3275 5.0275 -1.6875 4.6875 C-1.3575 3.6975 -1.0275 2.7075 -0.6875 1.6875 C-1.6775 2.1825 -1.6775 2.1825 -2.6875 2.6875 C-3.09479228 5.00906597 -3.43188677 7.3443787 -3.6875 9.6875 C-4.3475 9.3575 -5.0075 9.0275 -5.6875 8.6875 C-6.04825949 3.27610759 -6.04825949 3.27610759 -4.5 0.75 C-2.6875 -0.3125 -2.6875 -0.3125 0 0 Z " fill="#486A75" transform="translate(571.6875,383.3125)"/>
<path d="M0 0 C0.99 0.33 1.98 0.66 3 1 C3 1.66 3 2.32 3 3 C2.01 3.33 1.02 3.66 0 4 C3.51716303 4 4.37121748 3.17554415 7 1 C5.34908222 5.29238623 2.26245434 7.8793915 -1 11 C-1.66 10.67 -2.32 10.34 -3 10 C-2.67 9.01 -2.34 8.02 -2 7 C-2.33 6.01 -2.66 5.02 -3 4 C-1.5625 1.8125 -1.5625 1.8125 0 0 Z " fill="#2C5460" transform="translate(707,466)"/>
<path d="M0 0 C3.7910119 1.44950455 7.3874638 3.15172566 11 5 C11 5.66 11 6.32 11 7 C5.62295082 8.3442623 5.62295082 8.3442623 2.625 6.6875 C1 5 1 5 1 3 C0.34 2.34 -0.32 1.68 -1 1 C-0.67 0.67 -0.34 0.34 0 0 Z " fill="#EBF4F6" transform="translate(554,487)"/>
<path d="M0 0 C2.64956093 1.28445456 5.29453793 2.57709679 7.9375 3.875 C8.69224609 4.23980469 9.44699219 4.60460937 10.22460938 4.98046875 C11.30258789 5.51220703 11.30258789 5.51220703 12.40234375 6.0546875 C13.06741943 6.37937012 13.73249512 6.70405273 14.41772461 7.03857422 C16 8 16 8 17 10 C13.31894688 9.29210517 10.33645172 7.66822586 7 6 C5.3603125 5.5359375 5.3603125 5.5359375 3.6875 5.0625 C2.800625 4.711875 1.91375 4.36125 1 4 C0.33203125 1.93359375 0.33203125 1.93359375 0 0 Z " fill="#345763" transform="translate(455,500)"/>
<path d="M0 0 C0 3.80345877 -1.13786331 4.77701015 -3.5 7.6875 C-4.1496875 8.49574219 -4.799375 9.30398438 -5.46875 10.13671875 C-5.9740625 10.75160156 -6.479375 11.36648438 -7 12 C-8.32 11.67 -9.64 11.34 -11 11 C-9.84625622 7.53876866 -8.96327708 6.98850152 -6.0625 4.9375 C-3.85557073 3.36341071 -1.92088796 1.92088796 0 0 Z " fill="#E4F0F4" transform="translate(902,728)"/>
<path d="M0 0 C0 0.33 0 0.66 0 1 C-1.56116819 1.33951619 -3.12401338 1.67132544 -4.6875 2 C-5.99267578 2.2784375 -5.99267578 2.2784375 -7.32421875 2.5625 C-9.93712964 2.98972047 -12.35813038 3.07616201 -15 3 C-15 2.01 -15 1.02 -15 0 C-9.0410001 -1.88178944 -5.85789639 -2.19671115 0 0 Z " fill="#E8F5F7" transform="translate(703,501)"/>
<path d="M0 0 C0.33 0.66 0.66 1.32 1 2 C3.01669827 3.13350534 3.01669827 3.13350534 5 4 C3.02 4 1.04 4 -1 4 C-0.67 5.65 -0.34 7.3 0 9 C-1.32 9.33 -2.64 9.66 -4 10 C-5.0536628 6.83901159 -5.21514551 5.99112741 -4 3 C-1.9375 1.25 -1.9375 1.25 0 0 Z " fill="#376173" transform="translate(444,730)"/>
<path d="M0 0 C5.78474859 0.41589696 11.58882446 1.95252817 17 4 C17 4.33 17 4.66 17 5 C10.4491015 4.54240047 4.3246158 3.7899856 -2 2 C-1.34 1.34 -0.68 0.68 0 0 Z " fill="#496A75" transform="translate(581,497)"/>
<path d="M0 0 C0.99 0 1.98 0 3 0 C1.35821735 4.77609498 -1.26546702 8.79382904 -4 13 C-4.66 12.01 -5.32 11.02 -6 10 C-5.566875 9.649375 -5.13375 9.29875 -4.6875 8.9375 C-2.31641544 6.21514365 -1.3283165 3.35241784 0 0 Z " fill="#E1EFF2" transform="translate(715,436)"/>
<path d="M0 0 C3.63 1.65 7.26 3.3 11 5 C11 5.33 11 5.66 11 6 C8.36 6.33 5.72 6.66 3 7 C2.71125 6.195625 2.4225 5.39125 2.125 4.5625 C1.26737432 1.8673532 1.26737432 1.8673532 -1 1 C-0.67 0.67 -0.34 0.34 0 0 Z " fill="#E9F3F6" transform="translate(674,302)"/>
<path d="M0 0 C2.31 0.33 4.62 0.66 7 1 C6.34 2.65 5.68 4.3 5 6 C4.01 6 3.02 6 2 6 C2 5.34 2 4.68 2 4 C1.01 4.33 0.02 4.66 -1 5 C-0.67 3.35 -0.34 1.7 0 0 Z " fill="#3E6573" transform="translate(491,623)"/>
<path d="M0 0 C0.33 0 0.66 0 1 0 C1.33 3.3 1.66 6.6 2 10 C5.465 9.505 5.465 9.505 9 9 C8.34 10.32 7.68 11.64 7 13 C4.625 13.125 4.625 13.125 2 13 C0 11 0 11 -0.1953125 8.3984375 C-0.17210937 7.40070312 -0.14890625 6.40296875 -0.125 5.375 C-0.10695312 4.37210938 -0.08890625 3.36921875 -0.0703125 2.3359375 C-0.04710937 1.56507813 -0.02390625 0.79421875 0 0 Z " fill="#305766" transform="translate(145,728)"/>
<path d="M0 0 C1.26582219 3.86723631 1.1118765 7.73151262 1.0625 11.75 C1.05798828 12.44738281 1.05347656 13.14476562 1.04882812 13.86328125 C1.0371002 15.57555803 1.01916653 17.28779033 1 19 C0.01 19 -0.98 19 -2 19 C-2.66 18.34 -3.32 17.68 -4 17 C-3.67 16.34 -3.34 15.68 -3 15 C-2.34 15 -1.68 15 -1 15 C-1.01160156 14.00097656 -1.02320313 13.00195312 -1.03515625 11.97265625 C-1.04869141 10.03712891 -1.04869141 10.03712891 -1.0625 8.0625 C-1.07410156 6.77472656 -1.08570313 5.48695313 -1.09765625 4.16015625 C-1 1 -1 1 0 0 Z " fill="#EDF7F8" transform="translate(661,670)"/>
<path d="M0 0 C0.78375 0.04125 1.5675 0.0825 2.375 0.125 C2.375 1.115 2.375 2.105 2.375 3.125 C1.385 2.795 0.395 2.465 -0.625 2.125 C-0.955 4.435 -1.285 6.745 -1.625 9.125 C-2.285 9.125 -2.945 9.125 -3.625 9.125 C-4.25 5.75 -4.25 5.75 -4.625 2.125 C-2.625 0.125 -2.625 0.125 0 0 Z " fill="#3B6774" transform="translate(226.625,622.875)"/>
<path d="M0 0 C0.66 0 1.32 0 2 0 C0.55218207 3.44428265 -1.27694609 5.36130962 -4.125 7.75 C-5.21167969 8.67039062 -5.21167969 8.67039062 -6.3203125 9.609375 C-6.87460937 10.06828125 -7.42890625 10.5271875 -8 11 C-8.33 10.01 -8.66 9.02 -9 8 C-8.67 7.34 -8.34 6.68 -8 6 C-7.34 6 -6.68 6 -6 6 C-5.67 5.01 -5.34 4.02 -5 3 C-3 1.875 -3 1.875 -1 1 C-0.67 0.67 -0.34 0.34 0 0 Z " fill="#E6F5F7" transform="translate(553,301)"/>
<path d="M0 0 C-1.76537096 1.17491582 -3.53749713 2.33968684 -5.3125 3.5 C-6.29863281 4.1496875 -7.28476562 4.799375 -8.30078125 5.46875 C-11 7 -11 7 -14 7 C-14.33 6.01 -14.66 5.02 -15 4 C-12.525 4.495 -12.525 4.495 -10 5 C-9.67 4.01 -9.34 3.02 -9 2 C-3.69230769 -1.23076923 -3.69230769 -1.23076923 0 0 Z " fill="#DBEBF0" transform="translate(755,721)"/>
<path d="M0 0 C0.33 0.66 0.66 1.32 1 2 C1.99 2.33 2.98 2.66 4 3 C2.625 5 2.625 5 1 7 C0.34 7 -0.32 7 -1 7 C-0.67 8.65 -0.34 10.3 0 12 C-0.99 12.33 -1.98 12.66 -3 13 C-3.93045933 10.44855176 -4.08564091 9.25993522 -3.22265625 6.640625 C-2.83980469 5.85171875 -2.45695312 5.0628125 -2.0625 4.25 C-1.68222656 3.45078125 -1.30195313 2.6515625 -0.91015625 1.828125 C-0.60980469 1.22484375 -0.30945313 0.6215625 0 0 Z " fill="#406171" transform="translate(486,710)"/>
<path d="M0 0 C4.12751449 0.60698743 7.3321148 2.03810791 11 4 C11 4.66 11 5.32 11 6 C10.484375 5.855625 9.96875 5.71125 9.4375 5.5625 C3.61870018 3.94841893 3.61870018 3.94841893 -2 5 C-1.34 3.35 -0.68 1.7 0 0 Z " fill="#E1F0F3" transform="translate(596,438)"/>
<path d="M0 0 C0.66 0.33 1.32 0.66 2 1 C-1.465 8.425 -1.465 8.425 -5 16 C-6.15308018 11.38767929 -5.60147965 9.40406903 -4 5 C-2.4375 3.1875 -2.4375 3.1875 -1 2 C-0.67 1.34 -0.34 0.68 0 0 Z " fill="#395A63" transform="translate(539,342)"/>
<path d="M0 0 C0.33 0.99 0.66 1.98 1 3 C-1.64 5.97 -4.28 8.94 -7 12 C-7.66 11.01 -8.32 10.02 -9 9 C-7.47005208 7.79557292 -5.94010417 6.59114583 -4.41015625 5.38671875 C-2.72844923 3.94316909 -2.72844923 3.94316909 -2 1 C-1.34 0.67 -0.68 0.34 0 0 Z " fill="#E3EFF3" transform="translate(763,708)"/>
<path d="M0 0 C1.2380014 3.57644848 0.74926071 6.33694766 0 10 C-0.66 10 -1.32 10 -2 10 C-2.0825 10.78375 -2.165 11.5675 -2.25 12.375 C-3 15 -3 15 -5.046875 16.1640625 C-6.01367188 16.57785156 -6.01367188 16.57785156 -7 17 C-6.66226563 16.27554688 -6.32453125 15.55109375 -5.9765625 14.8046875 C-3.72909317 9.93300543 -1.53251361 5.15481852 0 0 Z " fill="#DBECF0" transform="translate(781,698)"/>
<path d="M0 0 C1.258125 0.12375 2.51625 0.2475 3.8125 0.375 C4.87404297 0.47941406 4.87404297 0.47941406 5.95703125 0.5859375 C8 1 8 1 11 3 C7.99758744 4.54409789 6.5837816 5.1459454 3.25 4.3125 C1 3 1 3 0 0 Z " fill="#DCEBEF" transform="translate(622,449)"/>
<path d="M0 0 C0.66 0.66 1.32 1.32 2 2 C1.34 3.32 0.68 4.64 0 6 C-0.66 6 -1.32 6 -2 6 C-2.226875 6.639375 -2.45375 7.27875 -2.6875 7.9375 C-4 10 -4 10 -6.625 10.75 C-7.40875 10.8325 -8.1925 10.915 -9 11 C-7.88625 9.948125 -7.88625 9.948125 -6.75 8.875 C-4.02182777 6.02281994 -2.08697046 3.3236937 0 0 Z " fill="#E6F2F5" transform="translate(623,675)"/>
<path d="M0 0 C0 1.98 0 3.96 0 6 C-1.65 6.33 -3.3 6.66 -5 7 C-4.01 6.67 -3.02 6.34 -2 6 C-3.32 5.34 -4.64 4.68 -6 4 C-6 3.01 -6 2.02 -6 1 C-3.92446352 0.4465236 -2.15634036 0 0 0 Z " fill="#2F5C6A" transform="translate(640,444)"/>
<path d="M0 0 C4.47631205 2.00662264 7.20161779 4.35417929 9 9 C8.67 9.66 8.34 10.32 8 11 C6.65772182 9.73861805 5.32641323 8.46555441 4 7.1875 C3.2575 6.47980469 2.515 5.77210938 1.75 5.04296875 C0 3 0 3 0 0 Z " fill="#DDEAED" transform="translate(705,301)"/>
<path d="M0 0 C2.31 0.66 4.62 1.32 7 2 C6.67 3.98 6.34 5.96 6 8 C1.3125 4.38671875 1.3125 4.38671875 0 3 C0 2.01 0 1.02 0 0 Z " fill="#E2EDEF" transform="translate(685,712)"/>
<path d="M0 0 C0.66 0 1.32 0 2 0 C2 2.31 2 4.62 2 7 C1.34 7 0.68 7 0 7 C-0.33 7.99 -0.66 8.98 -1 10 C-1.66 10 -2.32 10 -3 10 C-2.69201674 8.51988629 -2.378482 7.04092675 -2.0625 5.5625 C-1.88847656 4.73878906 -1.71445312 3.91507813 -1.53515625 3.06640625 C-1 1 -1 1 0 0 Z M2 5 C4 6 4 6 4 6 Z " fill="#326170" transform="translate(766,638)"/>
<path d="M0 0 C0.8971875 0.309375 0.8971875 0.309375 1.8125 0.625 C0.76449219 1.22248047 0.76449219 1.22248047 -0.3046875 1.83203125 C-1.21476563 2.36183594 -2.12484375 2.89164063 -3.0625 3.4375 C-3.96742188 3.95957031 -4.87234375 4.48164062 -5.8046875 5.01953125 C-8.42023183 6.56233799 -8.42023183 6.56233799 -10.1875 9.625 C-11.1775 9.295 -12.1675 8.965 -13.1875 8.625 C-11.91863036 7.49778564 -10.64732438 6.37331342 -9.375 5.25 C-8.66730469 4.62351562 -7.95960938 3.99703125 -7.23046875 3.3515625 C-2.7141552 -0.46528375 -2.7141552 -0.46528375 0 0 Z " fill="#DEEEF1" transform="translate(699.1875,636.375)"/>
<path d="M0 0 C4.95 1.98 9.9 3.96 15 6 C15 6.33 15 6.66 15 7 C10.13103697 6.40380045 5.67209049 5.43023178 1 4 C0.67 2.68 0.34 1.36 0 0 Z " fill="#E0F1F4" transform="translate(463,521)"/>
<path d="M0 0 C1.19882812 0.15275391 1.19882812 0.15275391 2.421875 0.30859375 C3.02515625 0.39238281 3.6284375 0.47617187 4.25 0.5625 C4.25 0.8925 4.25 1.2225 4.25 1.5625 C2.50215171 1.92713732 0.75159498 2.2788078 -1 2.625 C-2.46179688 2.92083984 -2.46179688 2.92083984 -3.953125 3.22265625 C-6.618119 3.54647535 -8.23871723 3.41753199 -10.75 2.5625 C-7.44376175 -0.74373825 -4.47451938 -0.5922158 0 0 Z " fill="#E3F4F7" transform="translate(712.75,618.4375)"/>
<path d="M0 0 C-6.27692308 4.06153846 -6.27692308 4.06153846 -9.9375 3.75 C-10.618125 3.5025 -11.29875 3.255 -12 3 C-12 2.34 -12 1.68 -12 1 C-3.96428571 -1.27678571 -3.96428571 -1.27678571 0 0 Z " fill="#DAE9ED" transform="translate(684,522)"/>
<path d="M0 0 C5.11365014 1.0681847 10.07227969 2.23107476 15 4 C14.01 4.66 13.02 5.32 12 6 C12 5.34 12 4.68 12 4 C11.01 4.33 10.02 4.66 9 5 C5.62528585 4.56734434 2.96765398 3.64869666 0 2 C0 1.34 0 0.68 0 0 Z " fill="#D5E7EA" transform="translate(759,518)"/>
<path d="M0 0 C0.66 1.32 1.32 2.64 2 4 C-0.31 5.98 -2.62 7.96 -5 10 C-4.04068134 6.16272535 -2.85052988 2.85052988 0 0 Z " fill="#D9E8EA" transform="translate(300,393)"/>
<path d="M0 0 C3.55007718 3.9050849 4.81819916 6.97734643 6 12 C4.68 11.67 3.36 11.34 2 11 C0.80712589 7.12315913 0 4.08378077 0 0 Z " fill="#3E606E" transform="translate(840,714)"/>
<path d="M0 0 C1.32 0.66 2.64 1.32 4 2 C2.6875 4.5 2.6875 4.5 1 7 C0.01 7 -0.98 7 -2 7 C-2.125 4.625 -2.125 4.625 -2 2 C-1.34 1.34 -0.68 0.68 0 0 Z " fill="#EEF3F6" transform="translate(278,418)"/>
<path d="M0 0 C0.99 0.33 1.98 0.66 3 1 C3.875 2.8125 3.875 2.8125 4 5 C2.5625 7.25 2.5625 7.25 1 9 C-1 6 -1 6 -0.625 2.8125 C-0.41875 1.884375 -0.2125 0.95625 0 0 Z " fill="#ECF4F5" transform="translate(522,334)"/>
<path d="M0 0 C0.33 0.66 0.66 1.32 1 2 C-0.14453125 4.3828125 -0.14453125 4.3828125 -1.8125 7.125 C-2.35519531 8.03507813 -2.89789062 8.94515625 -3.45703125 9.8828125 C-3.96621094 10.58148437 -4.47539063 11.28015625 -5 12 C-5.66 12 -6.32 12 -7 12 C-5.63855967 6.80177328 -3.53269829 3.90456127 0 0 Z " fill="#DDECEF" transform="translate(685,646)"/>
<path d="M0 0 C0 0.99 0 1.98 0 3 C0.66 3.33 1.32 3.66 2 4 C-6.57142857 3.14285714 -6.57142857 3.14285714 -10 1 C-6.59437148 0.22157062 -3.49234244 -0.09978121 0 0 Z " fill="#DCEBEE" transform="translate(768,501)"/>
<path d="M0 0 C0.99 0.33 1.98 0.66 3 1 C3.6875 3.0625 3.6875 3.0625 4 5 C3.34 5 2.68 5 2 5 C1.34 3.35 0.68 1.7 0 0 Z M0 4 C1.5625 5.1875 1.5625 5.1875 3 7 C2.6875 9.6875 2.6875 9.6875 2 12 C0.23537317 8.91190305 0 7.76687864 0 4 Z " fill="#3A6374" transform="translate(521,440)"/>
<path d="M0 0 C0.99 0.33 1.98 0.66 3 1 C3 1.66 3 2.32 3 3 C2.34 3 1.68 3 1 3 C1.350625 3.928125 1.70125 4.85625 2.0625 5.8125 C3 9 3 9 2 12 C0.27735506 8.70450534 -1.29445932 5.66881155 -2 2 C-1.34 2 -0.68 2 0 2 C0 1.34 0 0.68 0 0 Z " fill="#3A6270" transform="translate(713,328)"/>
<path d="M0 0 C0 3 0 3 -1 5 C-0.34 5 0.32 5 1 5 C0.34 6.32 -0.32 7.64 -1 9 C-2.32 7.68 -3.64 6.36 -5 5 C-3.35 3.35 -1.7 1.7 0 0 Z " fill="#2B5461" transform="translate(896,720)"/>
<path d="M0 0 C0.33 0 0.66 0 1 0 C1.268125 1.093125 1.53625 2.18625 1.8125 3.3125 C2.91358648 6.73166327 3.42474926 7.77591981 6 10 C6 10.66 6 11.32 6 12 C4 11 2 10 0 9 C0 6.03 0 3.06 0 0 Z " fill="#D6E4E8" transform="translate(713,706)"/>
<path d="M0 0 C0.66 0.33 1.32 0.66 2 1 C0.35 3.64 -1.3 6.28 -3 9 C-3.66 7.68 -4.32 6.36 -5 5 C-4 2 -4 2 -2.0625 0.75 C-1.381875 0.5025 -0.70125 0.255 0 0 Z " fill="#E6F0F2" transform="translate(354,704)"/>
<path d="M0 0 C0.33 0.99 0.66 1.98 1 3 C-0.65 4.32 -2.3 5.64 -4 7 C-2.79618552 4.50638429 -1.54571278 2.31856917 0 0 Z M-5 7 C-4.34 7.66 -3.68 8.32 -3 9 C-3.99 9.99 -4.98 10.98 -6 12 C-6 11.34 -6 10.68 -6 10 C-6.66 9.67 -7.32 9.34 -8 9 C-7.01 8.34 -6.02 7.68 -5 7 Z " fill="#E0EEF1" transform="translate(593,443)"/>
<path d="M0 0 C0 0.66 0 1.32 0 2 C0.99 2.66 1.98 3.32 3 4 C3 4.66 3 5.32 3 6 C-0.0831351 4.80100302 -3.06279492 3.52299523 -6 2 C-6 1.34 -6 0.68 -6 0 C-2.25 -1.125 -2.25 -1.125 0 0 Z " fill="#3F636F" transform="translate(695,731)"/>
<path d="M0 0 C2.9375 0.375 2.9375 0.375 6 1 C6.33 1.66 6.66 2.32 7 3 C4.69 3.33 2.38 3.66 0 4 C-0.33 3.34 -0.66 2.68 -1 2 C-0.67 1.34 -0.34 0.68 0 0 Z " fill="#466A74" transform="translate(577,451)"/>
<path d="M0 0 C1.5625 1.125 1.5625 1.125 3 3 C2.8125 6.125 2.8125 6.125 2 9 C1.01 9.495 1.01 9.495 0 10 C-1.125 2.25 -1.125 2.25 0 0 Z " fill="#E0F2F5" transform="translate(580,421)"/>
<path d="M0 0 C2 1 2 1 3 3 C1.02579865 5.52259061 0.03254358 5.9929808 -3.1875 6.6875 C-4.5796875 6.8421875 -4.5796875 6.8421875 -6 7 C-4.02 4.69 -2.04 2.38 0 0 Z " fill="#2D525D" transform="translate(307,391)"/>
<path d="M0 0 C0.99 0.66 1.98 1.32 3 2 C2.67 2.66 2.34 3.32 2 4 C-1.63 4 -5.26 4 -9 4 C-2.6 0.8 -2.6 0.8 0 0 Z " fill="#DFECEF" transform="translate(477,737)"/>
<path d="M0 0 C3.33523252 1.38009621 5.18607951 2.84950652 7 6 C6.67 6.99 6.34 7.98 6 9 C2.91910327 6.22719294 1.31224548 3.93673644 0 0 Z " fill="#E6F4F6" transform="translate(678,703)"/>
<path d="M0 0 C-0.33 1.65 -0.66 3.3 -1 5 C-1.66 4.67 -2.32 4.34 -3 4 C-3 3.34 -3 2.68 -3 2 C-5.97 2 -8.94 2 -12 2 C-12 1.67 -12 1.34 -12 1 C-7.93631321 0.22596442 -4.13574827 -0.0984702 0 0 Z " fill="#4B707B" transform="translate(594,690)"/>
<path d="M0 0 C2.66735273 2.48952921 4.55746343 4.63408134 6 8 C4.68 7.67 3.36 7.34 2 7 C2 6.34 2 5.68 2 5 C1.34 5 0.68 5 0 5 C-0.5625 3.0625 -0.5625 3.0625 -1 1 C-0.67 0.67 -0.34 0.34 0 0 Z " fill="#DAECEF" transform="translate(761,648)"/>
<path d="M0 0 C3.96 0.33 7.92 0.66 12 1 C12 1.33 12 1.66 12 2 C10.37585622 2.19477739 8.75063577 2.38059458 7.125 2.5625 C6.22007812 2.66691406 5.31515625 2.77132812 4.3828125 2.87890625 C2 3 2 3 0 2 C0 1.34 0 0.68 0 0 Z " fill="#DEEFF2" transform="translate(520,539)"/>
<path d="M0 0 C3.3 0.66 6.6 1.32 10 2 C5.8204355 4.78637633 3.85331323 3.79562512 -1 3 C-0.67 2.01 -0.34 1.02 0 0 Z " fill="#426471" transform="translate(509,534)"/>
<path d="M0 0 C0.66 0 1.32 0 2 0 C2 0.66 2 1.32 2 2 C2.99 1.67 3.98 1.34 5 1 C5 1.66 5 2.32 5 3 C5.99 2.67 6.98 2.34 8 2 C8.66 2.66 9.32 3.32 10 4 C6.44706507 5.14947895 5.20023331 5.0868937 1.6875 3.5625 C0.800625 3.046875 -0.08625 2.53125 -1 2 C-0.67 1.34 -0.34 0.68 0 0 Z " fill="#42666E" transform="translate(775,521)"/>
<path d="M0 0 C-0.99 1.485 -0.99 1.485 -2 3 C-5.625 3.6875 -5.625 3.6875 -9 4 C-9 3.34 -9 2.68 -9 2 C-5.86501708 0.14223235 -3.62528568 -0.20140476 0 0 Z " fill="#405E6A" transform="translate(633,498)"/>
<path d="M0 0 C0.99 0.33 1.98 0.66 3 1 C1.02 3.31 -0.96 5.62 -3 8 C-3.33 7.01 -3.66 6.02 -4 5 C-2.0625 2.3125 -2.0625 2.3125 0 0 Z " fill="#DCEAED" transform="translate(306,388)"/>
<path d="M0 0 C0.33 0.66 0.66 1.32 1 2 C1.99 1.67 2.98 1.34 4 1 C3.67 4.96 3.34 8.92 3 13 C2.67 13 2.34 13 2 13 C1.93941406 12.39671875 1.87882812 11.7934375 1.81640625 11.171875 C1.69072266 9.97304688 1.69072266 9.97304688 1.5625 8.75 C1.48128906 7.96109375 1.40007812 7.1721875 1.31640625 6.359375 C1.02365007 4.17635361 0.57935581 2.1226818 0 0 Z " fill="#EAF4F8" transform="translate(371,337)"/>
<path d="M0 0 C0.66 0 1.32 0 2 0 C1.52797514 4.24822374 -0.96655518 6.19989709 -4 9 C-4 4.9666466 -2.39120082 3.16482462 0 0 Z " fill="#E6F2F5" transform="translate(549,330)"/>
<path d="M0 0 C1.32 1.32 2.64 2.64 4 4 C3.01 4.495 3.01 4.495 2 5 C2.020625 6.11375 2.04125 7.2275 2.0625 8.375 C2 12 2 12 1 14 C0.34 13.67 -0.32 13.34 -1 13 C-0.67 12.34 -0.34 11.68 0 11 C0.07033769 9.12620395 0.0843022 7.24998898 0.0625 5.375 C0.05347656 4.37210937 0.04445313 3.36921875 0.03515625 2.3359375 C0.02355469 1.56507813 0.01195312 0.79421875 0 0 Z " fill="#D1DFE6" transform="translate(489,307)"/>
<path d="M0 0 C-2.22825644 2.22825644 -3.65761628 2.69239369 -6.625 3.625 C-7.44226563 3.88539063 -8.25953125 4.14578125 -9.1015625 4.4140625 C-9.72804688 4.60742188 -10.35453125 4.80078125 -11 5 C-10 2 -10 2 -8.3125 0.8125 C-5.45030907 -0.19313465 -3.01172092 -0.13689641 0 0 Z " fill="#E6F3F6" transform="translate(588,283)"/>
<path d="M0 0 C1.32 1.32 2.64 2.64 4 4 C3.34 4.66 2.68 5.32 2 6 C-0.0625 5.75 -0.0625 5.75 -2 5 C-2.33 4.34 -2.66 3.68 -3 3 C-2.34 3 -1.68 3 -1 3 C-0.67 2.01 -0.34 1.02 0 0 Z " fill="#ECF1F5" transform="translate(419,723)"/>
<path d="M0 0 C3.875 4.75 3.875 4.75 5 7 C3.824375 7.4640625 3.824375 7.4640625 2.625 7.9375 C0.07669872 8.92875038 0.07669872 8.92875038 -2 10 C-1.67 9.46375 -1.34 8.9275 -1 8.375 C0.22699204 5.4608939 0.14233286 3.13132292 0 0 Z " fill="#3F6475" transform="translate(615,710)"/>
<path d="M0 0 C0.66 0.33 1.32 0.66 2 1 C1.01 2.485 1.01 2.485 0 4 C-0.66 4 -1.32 4 -2 4 C-2.33 4.99 -2.66 5.98 -3 7 C-3.66 5.35 -4.32 3.7 -5 2 C-2.625 0.9375 -2.625 0.9375 0 0 Z " fill="#DFEFF2" transform="translate(608,688)"/>
<path d="M0 0 C0.66 0.33 1.32 0.66 2 1 C1.25 6.75 1.25 6.75 -1 9 C-1.80967438 6.08517222 -2.21845993 4.53886783 -1.0625 1.6875 C-0.711875 1.130625 -0.36125 0.57375 0 0 Z " fill="#2B5962" transform="translate(675,655)"/>
<path d="M0 0 C1.65 0 3.3 0 5 0 C4.67 0.66 4.34 1.32 4 2 C5.32 2.66 6.64 3.32 8 4 C5.36 4.33 2.72 4.66 0 5 C0 3.35 0 1.7 0 0 Z " fill="#E2EAEC" transform="translate(624,515)"/>
<path d="M0 0 C2.97 0.495 2.97 0.495 6 1 C6.33 1.99 6.66 2.98 7 4 C7.99 4.66 8.98 5.32 10 6 C9.67 6.66 9.34 7.32 9 8 C7.49712782 6.85793642 5.99776716 5.71125043 4.5 4.5625 C3.6646875 3.92441406 2.829375 3.28632813 1.96875 2.62890625 C1.3190625 2.09136719 0.669375 1.55382812 0 1 C0 0.67 0 0.34 0 0 Z " fill="#3D5F6A" transform="translate(429,499)"/>
<path d="M0 0 C0.99 0 1.98 0 3 0 C1.84414715 3.91211733 0.64465038 6.8745041 -2 10 C-1.54177532 6.53058454 -1.10868317 3.32604951 0 0 Z " fill="#43636E" transform="translate(731,438)"/>
<path d="M0 0 C0.33 0.66 0.66 1.32 1 2 C0.06553465 4.03144641 -0.93224776 6.03533587 -2 8 C-3.32 7.34 -4.64 6.68 -6 6 C-4.02 4.02 -2.04 2.04 0 0 Z " fill="#31535D" transform="translate(300,398)"/>
<path d="M0 0 C0.33 0 0.66 0 1 0 C1.33 4.62 1.66 9.24 2 14 C-1 11 -1 11 -1.07421875 8.30078125 C-0.94660156 7.31464844 -0.81898438 6.32851563 -0.6875 5.3125 C-0.56761719 4.31863281 -0.44773437 3.32476562 -0.32421875 2.30078125 C-0.21722656 1.54152344 -0.11023438 0.78226562 0 0 Z " fill="#5F7985" transform="translate(372,341)"/>
<path d="M0 0 C0.625 1.8125 0.625 1.8125 1 4 C0.01 5.485 0.01 5.485 -1 7 C-1.66 7 -2.32 7 -3 7 C-3.33 6.01 -3.66 5.02 -4 4 C-3.34 3.01 -2.68 2.02 -2 1 C-1.34 1.33 -0.68 1.66 0 2 C0 1.34 0 0.68 0 0 Z " fill="#42626E" transform="translate(631,734)"/>
<path d="M0 0 C0 0.99 0 1.98 0 3 C-1 4 -1 4 -4.5625 4.0625 C-5.696875 4.041875 -6.83125 4.02125 -8 4 C-8 3.34 -8 2.68 -8 2 C-5.36 1.34 -2.72 0.68 0 0 Z " fill="#3F5F69" transform="translate(470,729)"/>
<path d="M0 0 C0.66 0.33 1.32 0.66 2 1 C1.67 1.66 1.34 2.32 1 3 C1.99 2.67 2.98 2.34 4 2 C4 3.32 4 4.64 4 6 C3.01 6.33 2.02 6.66 1 7 C-0.0625 5.1875 -0.0625 5.1875 -1 3 C-0.67 2.01 -0.34 1.02 0 0 Z " fill="#2B5868" transform="translate(482,720)"/>
<path d="M0 0 C-4.95 2.475 -4.95 2.475 -10 5 C-10 4.01 -10 3.02 -10 2 C-4.5 -1.125 -4.5 -1.125 0 0 Z " fill="#DDEDEF" transform="translate(343,721)"/>
<path d="M0 0 C1.6875 2.5 1.6875 2.5 3 5 C-0.90838866 5 -2.11594107 3.49432124 -5 1 C-3 0 -3 0 0 0 Z " fill="#E3F0F3" transform="translate(348,629)"/>
<path d="M0 0 C0.66 1.32 1.32 2.64 2 4 C0.35 5.65 -1.3 7.3 -3 9 C-1.125 2.25 -1.125 2.25 0 0 Z " fill="#EAF4F5" transform="translate(728,449)"/>
<path d="M0 0 C1.65 0 3.3 0 5 0 C5 0.99 5 1.98 5 3 C5.33 3.99 5.66 4.98 6 6 C5.01 6.495 5.01 6.495 4 7 C2.02 3.535 2.02 3.535 0 0 Z " fill="#EBF2F7" transform="translate(616,711)"/>
<path d="M0 0 C0.66 0.66 1.32 1.32 2 2 C1.75 4.5625 1.75 4.5625 1 7 C0.01 7.495 0.01 7.495 -1 8 C-1.93065133 5.39417629 -2.14917407 4.35801776 -1.0625 1.75 C-0.711875 1.1725 -0.36125 0.595 0 0 Z " fill="#DDEFF0" transform="translate(677,658)"/>
<path d="M0 0 C1.99954746 -0.04254356 4.00041636 -0.04080783 6 0 C7 1 7 1 7.0625 4.0625 C7.041875 5.031875 7.02125 6.00125 7 7 C6.401875 6.21625 5.80375 5.4325 5.1875 4.625 C3.08914751 1.85425677 3.08914751 1.85425677 0 0 Z " fill="#285361" transform="translate(415,624)"/>
<path d="M0 0 C2.64 0.33 5.28 0.66 8 1 C4.375 4 4.375 4 1 4 C0.67 2.68 0.34 1.36 0 0 Z " fill="#466B7A" transform="translate(596,624)"/>
<path d="M0 0 C0.66 0.33 1.32 0.66 2 1 C2 1.99 2 2.98 2 4 C-0.64 4 -3.28 4 -6 4 C-4.03617993 2.49440461 -2.21736634 1.10868317 0 0 Z " fill="#EAF6F9" transform="translate(601,483)"/>
<path d="M0 0 C2.52588702 2.36292656 3.88820837 3.66462511 5 7 C3.35 6.67 1.7 6.34 0 6 C-0.38218767 4.34385343 -0.71395102 2.67542976 -1 1 C-0.67 0.67 -0.34 0.34 0 0 Z " fill="#DFEFF3" transform="translate(388,453)"/>
<path d="M0 0 C1.32 0.33 2.64 0.66 4 1 C4 2.98 4 4.96 4 7 C2 5.1875 2 5.1875 0 3 C0 2.01 0 1.02 0 0 Z " fill="#365966" transform="translate(578,415)"/>
<path d="M0 0 C0.99 0 1.98 0 3 0 C4.09658936 3.28976808 3.79953138 4.71303767 3 8 C2.01 7.34 1.02 6.68 0 6 C-0.1875 2.875 -0.1875 2.875 0 0 Z " fill="#275A64" transform="translate(724,718)"/>
<path d="M0 0 C0.66 1.32 1.32 2.64 2 4 C0.02 5.32 -1.96 6.64 -4 8 C-2.87548273 5.0280615 -1.77706209 2.66559313 0 0 Z " fill="#DEEDF0" transform="translate(364,711)"/>
<path d="M0 0 C0.66 0 1.32 0 2 0 C2.433125 1.2065625 2.433125 1.2065625 2.875 2.4375 C3.73262568 5.1326468 3.73262568 5.1326468 6 6 C5.34 6.66 4.68 7.32 4 8 C0 3.375 0 3.375 0 0 Z " fill="#DCECEE" transform="translate(726,706)"/>
<path d="M0 0 C0.33 1.32 0.66 2.64 1 4 C1.66 4 2.32 4 3 4 C2.6875 5.9375 2.6875 5.9375 2 8 C1.01 8.33 0.02 8.66 -1 9 C-0.67 6.03 -0.34 3.06 0 0 Z " fill="#E5F1F4" transform="translate(371,690)"/>
<path d="M0 0 C1.9375 0.3125 1.9375 0.3125 4 1 C5 4 5 4 4 7 C0 2.25 0 2.25 0 0 Z " fill="#365A67" transform="translate(351,650)"/>
<path d="M0 0 C0 0.33 0 0.66 0 1 C-2.97 1 -5.94 1 -9 1 C-9 0.34 -9 -0.32 -9 -1 C-5.22102349 -2.0497157 -3.35080929 -2.10976881 0 0 Z " fill="#476773" transform="translate(541,540)"/>
<path d="M0 0 C-0.33 0.99 -0.66 1.98 -1 3 C-3.64 2.67 -6.28 2.34 -9 2 C-9 1.67 -9 1.34 -9 1 C-5.846632 0.29925156 -3.27275026 0 0 0 Z " fill="#476773" transform="translate(624,520)"/>
<path d="M0 0 C2 0 2 0 3.625 1.5 C4.07875 1.995 4.5325 2.49 5 3 C4.67 3.66 4.34 4.32 4 5 C1 5 1 5 -0.6875 3.5 C-1.120625 3.005 -1.55375 2.51 -2 2 C-1.34 2 -0.68 2 0 2 C0 1.34 0 0.68 0 0 Z " fill="#DBE8EA" transform="translate(786,508)"/>
<path d="M0 0 C0.99 0.66 1.98 1.32 3 2 C2.67 2.99 2.34 3.98 2 5 C0.02 4.01 -1.96 3.02 -4 2 C-2.68 1.34 -1.36 0.68 0 0 Z " fill="#385865" transform="translate(614,442)"/>
<path d="M0 0 C2.31 0.66 4.62 1.32 7 2 C6.34 3.32 5.68 4.64 5 6 C3.35 4.02 1.7 2.04 0 0 Z " fill="#D7E4E8" transform="translate(592,418)"/>
<path d="M0 0 C0.66 0 1.32 0 2 0 C1.42655063 2.86724686 1.1385485 3.8614515 -1 6 C-1.99 5.67 -2.98 5.34 -4 5 C-2.71937515 3.2925002 -1.38232443 1.62626404 0 0 Z " fill="#335663" transform="translate(287,413)"/>
<path d="M0 0 C0.66 0 1.32 0 2 0 C2.66 1.98 3.32 3.96 4 6 C2.02 5.34 0.04 4.68 -2 4 C-1.34 2.68 -0.68 1.36 0 0 Z " fill="#406472" transform="translate(578,400)"/>
<path d="M0 0 C-1.44253657 3.36591866 -3.33264727 5.51047079 -6 8 C-5.62403791 5.21788056 -5.32681541 3.4120716 -3.5625 1.1875 C-2 0 -2 0 0 0 Z " fill="#DDEDF0" transform="translate(540,316)"/>
<path d="M0 0 C0.66 0.66 1.32 1.32 2 2 C0.02 2.99 -1.96 3.98 -4 5 C-4.66 4.34 -5.32 3.68 -6 3 C-3.86437246 0.86437246 -2.93453261 0.36681658 0 0 Z " fill="#E7F3F4" transform="translate(569,290)"/>
<path d="M0 0 C0.33 0 0.66 0 1 0 C1 1.98 1 3.96 1 6 C-0.98 6.99 -0.98 6.99 -3 8 C-2.01 5.36 -1.02 2.72 0 0 Z " fill="#44636C" transform="translate(617,664)"/>
<path d="M0 0 C0.33 0 0.66 0 1 0 C0.25 6.75 0.25 6.75 -2 9 C-3 6 -3 6 -1.5625 2.8125 C-1.046875 1.884375 -0.53125 0.95625 0 0 Z " fill="#43646E" transform="translate(669,649)"/>
<path d="M0 0 C2.475 0.495 2.475 0.495 5 1 C5.33 2.98 5.66 4.96 6 7 C1.125 2.25 1.125 2.25 0 0 Z " fill="#E2F0F4" transform="translate(356,640)"/>
<path d="M0 0 C2.97 1.65 5.94 3.3 9 5 C8.01 5.33 7.02 5.66 6 6 C2.8125 4.1875 2.8125 4.1875 0 2 C0 1.34 0 0.68 0 0 Z " fill="#42606B" transform="translate(342,630)"/>
<path d="M0 0 C3.3 0.33 6.6 0.66 10 1 C10 1.33 10 1.66 10 2 C6.7 2.33 3.4 2.66 0 3 C0 2.01 0 1.02 0 0 Z " fill="#CDE0E4" transform="translate(594,522)"/>
<path d="M0 0 C0.94875 0.04125 1.8975 0.0825 2.875 0.125 C2.545 1.115 2.215 2.105 1.875 3.125 C-0.435 2.795 -2.745 2.465 -5.125 2.125 C-3.125 0.125 -3.125 0.125 0 0 Z " fill="#40606E" transform="translate(757.125,514.875)"/>
<path d="M0 0 C0.66 0 1.32 0 2 0 C1.25 4.75 1.25 4.75 -1 7 C-1.99 6.67 -2.98 6.34 -4 6 C-3.525625 5.566875 -3.05125 5.13375 -2.5625 4.6875 C-0.76313043 2.97690387 -0.76313043 2.97690387 0 0 Z " fill="#325763" transform="translate(269,477)"/>
<path d="M0 0 C1.32 0 2.64 0 4 0 C4 0.66 4 1.32 4 2 C3.34 2 2.68 2 2 2 C2.33 2.99 2.66 3.98 3 5 C2.01 5.66 1.02 6.32 0 7 C-0.33 6.01 -0.66 5.02 -1 4 C-0.34 4 0.32 4 1 4 C1 3.34 1 2.68 1 2 C0.34 1.67 -0.32 1.34 -1 1 C-0.67 0.67 -0.34 0.34 0 0 Z " fill="#406575" transform="translate(699,476)"/>
<path d="M0 0 C1.67542976 0.28604898 3.34385343 0.61781233 5 1 C4.67 1.66 4.34 2.32 4 3 C2.68 3 1.36 3 0 3 C-0.33 3.66 -0.66 4.32 -1 5 C-1 1 -1 1 0 0 Z " fill="#3D606F" transform="translate(634,442)"/>
<path d="M0 0 C2.125 0.9375 2.125 0.9375 4 2 C1.33333333 3.33333333 -1.33333333 4.66666667 -4 6 C-4 5.01 -4 4.02 -4 3 C-3.34 3 -2.68 3 -2 3 C-2 2.34 -2 1.68 -2 1 C-1.34 0.67 -0.68 0.34 0 0 Z " fill="#E0EEF0" transform="translate(518,419)"/>
<path d="M0 0 C-1.49097658 3.7952131 -3.75700849 5.61042731 -7 8 C-6.44414399 4.1090079 -4.34122117 0 0 0 Z " fill="#2C525C" transform="translate(316,402)"/>
<path d="M0 0 C2.45823172 3.68734758 3.01242616 6.69699971 4 11 C3.01 10.67 2.02 10.34 1 10 C0.67 6.7 0.34 3.4 0 0 Z " fill="#CCE0E5" transform="translate(567,395)"/>
<path d="M0 0 C2.31 0 4.62 0 7 0 C7.33 0.99 7.66 1.98 8 3 C5.36 2.67 2.72 2.34 0 2 C0 1.34 0 0.68 0 0 Z " fill="#395862" transform="translate(364,338)"/>
<path d="M0 0 C0.66 1.32 1.32 2.64 2 4 C1.01 4.99 0.02 5.98 -1 7 C-1.66 6.34 -2.32 5.68 -3 5 C-2.01 3.35 -1.02 1.7 0 0 Z " fill="#43616E" transform="translate(533,325)"/>
</svg>
